<svg version="1.1" xmlns="http://www.w3.org/2000/svg" viewBox="0 0 615.5852881537544 550.7335917154949" width="1846.7558644612632" height="1652.2007751464846">
  <!-- svg-source:excalidraw -->
  
  <defs>
    <style>
      @font-face {
        font-family: "Virgil";
        src: url("https://excalidraw.com/Virgil.woff2");
      }
      @font-face {
        font-family: "Cascadia";
        src: url("https://excalidraw.com/Cascadia.woff2");
      }
    </style>
  </defs>
  <rect x="0" y="0" width="615.5852881537544" height="550.7335917154949" fill="#ffffff"></rect><g stroke-linecap="round" transform="translate(10.799445258246806 71.8438212076826) rotate(0 297.3676681518556 104.25627814398871)"><path d="M0 0 C0 0, 0 0, 0 0 M0 0 C0 0, 0 0, 0 0 M0.66 7.7 C-0.15 5.06, 2.57 4.39, 5.07 1.31 M-0.16 6.7 C0.82 4.4, 2.66 3.29, 4.96 0.31 M-0.66 15.23 C1.73 9.8, 8.7 5.08, 8.15 -1.01 M-1.28 13.39 C3.21 6.84, 6.6 2.51, 10.92 -0.53 M-2.77 16.56 C0.98 14.61, 9.26 8.96, 16.32 1.77 M0.59 16.87 C5.32 13.69, 11.49 6.11, 16.13 2.18 M1.15 23.81 C10.01 12.7, 13.98 6.28, 19.27 -1.65 M-1.54 22.09 C7.81 15.52, 15.51 7.13, 22.53 -1.57 M-0.71 29.03 C5.35 26.41, 12.03 14.39, 26.38 -1.02 M1.38 29.73 C10.1 17.63, 18.79 5.73, 24.57 0 M0.94 40.13 C7.79 22.77, 19.79 12.42, 28 3.34 M-1.45 38.09 C9.06 28.45, 15.05 21.18, 31.77 -0.61 M3.09 39.26 C15.92 27.52, 25.68 11.59, 38.22 1.6 M-1.33 42.08 C11.96 30.76, 22.67 14.97, 37.08 0.06 M-2.83 52.24 C12.78 28.75, 29.04 8.55, 44.99 3.56 M1.54 47.83 C8.32 39.59, 18.98 26.95, 43.83 -1.2 M-1.58 50.58 C18.83 38.35, 38.1 17.34, 45.54 0.03 M0.34 55.77 C16.61 36.76, 32.31 18.79, 46.07 0.14 M1.39 64.76 C16 44.38, 29.47 25.72, 52.4 -0.05 M1.95 59.09 C10.94 45.95, 26.49 29.08, 51.42 -1.33 M1.27 70.19 C19.66 48.77, 34.35 23.33, 56.93 -0.23 M1.19 66.8 C11.35 54.74, 25.12 36.76, 57.5 1.47 M0.68 72.71 C13.68 55.52, 36.06 34.28, 67.25 -3.42 M0.49 74.36 C17.47 54.75, 33.33 37.83, 62.78 -1.56 M0.46 82.15 C15.27 57.25, 32.58 35.14, 71.83 -2.54 M1.53 78.36 C22.11 52.12, 48.5 25.49, 66.92 0.72 M-3 86.23 C16.17 63.08, 28.78 48.02, 77.43 0.65 M-0.55 83.56 C19.01 63.88, 40.67 41.84, 73.72 -0.99 M1.75 91.91 C16.21 70.53, 32.09 51.82, 80.6 -3.15 M-0.74 93.34 C26.11 62.24, 47.44 35.83, 79.43 2 M-1.46 99.33 C24.47 69.17, 46.83 41.61, 81.71 -1.53 M-1.98 96.79 C27.88 62.66, 58.12 29.85, 83.65 -1.3 M-1.61 107.31 C18.11 77.77, 43.36 59.88, 88.43 0.84 M0.53 103.32 C32.29 68.37, 59.63 33.13, 89.69 0.85 M-1.7 110.88 C27.03 80.64, 56.39 43.75, 97.74 3.5 M-1.06 109.33 C31.18 72.58, 63.89 35.95, 95.48 1.27 M2.54 115.28 C26.82 87.52, 49.4 56.32, 99.41 3.44 M-0.99 117.3 C38.89 71.43, 76.15 27.54, 101.91 0.25 M2.22 121.16 C31.33 78.44, 69.87 41.49, 106.04 0.31 M0.5 122.18 C25.83 92.55, 47.37 68.57, 107.73 -0.09 M-3.43 130.64 C33.83 90.81, 61.15 57.39, 108.51 -2.23 M-0.68 126.5 C23.04 96.72, 52.23 66.9, 109.9 -1.39 M-0.24 136.79 C46.42 88.06, 85.32 29.22, 113.35 1.36 M-0.74 135 C43.84 83.64, 89.89 35.02, 117.81 2.02 M-0.33 137.1 C23.98 109.29, 48.28 82.79, 125.54 0.09 M-0.42 141.28 C25.7 110.65, 49.57 82.18, 120.99 1.78 M3.25 147.53 C39.4 101.05, 82.02 49.01, 123.26 3.94 M1.3 146.88 C43.9 96.88, 84.29 49.2, 128.67 2.15 M-0.02 155.38 C31.19 110.86, 66.35 72.5, 134.96 1.61 M-0.43 151.79 C28.97 118.49, 58.09 84.82, 132.14 -0.84 M-0.69 159 C40.59 117.13, 78.65 68.47, 139.94 2.49 M1.42 157.33 C27.24 125.38, 54.95 93.18, 136.91 -1.21 M-2.48 162.28 C31 128.21, 62.46 88.53, 144.9 1.21 M-0.79 164.57 C49.12 110.26, 95.37 59.84, 141.88 -0.71 M-0.75 173.35 C42.7 118.66, 84.1 71.49, 148.33 2.55 M-1.03 170.32 C44.87 120.57, 87.18 71.7, 147.22 1.98 M1.42 174.71 C41.54 123.64, 81.41 75.13, 153.79 -2.94 M1.51 176.14 C56.74 110.76, 117.16 43.38, 153.81 -1.42 M2.69 180.22 C57.46 116.43, 121.78 46.25, 158.51 -2.78 M-0.88 184.1 C37.58 140.6, 71.9 101.44, 159.52 1.34 M1.79 191.04 C60.15 112.34, 128.47 35.99, 166.07 -0.07 M-1.72 188.71 C62.03 120.26, 124.79 47.09, 165.76 0.04 M2.75 194.96 C34.52 154.58, 66.85 111.91, 168.55 2.53 M-1.27 196.04 C40.44 146.44, 78.03 102.35, 170.31 -1.3 M0.42 203.79 C48.39 143.18, 93.81 90.34, 172.12 -0.41 M-0.32 200.02 C58.57 131.43, 118.42 60.98, 173.9 -0.45 M-1.28 205.48 C63.87 129.4, 124.48 58.29, 178.95 -2.38 M-0.68 206.56 C57.83 141.52, 117.02 74.86, 179.31 -0.12 M1.89 207.85 C62 146.37, 116.29 86.78, 187.11 -1.36 M2.87 211.29 C42.73 169.46, 80.26 127.99, 185.26 -0.81 M8.45 210.27 C47.24 168.23, 85.77 124.33, 192.37 2.75 M7.61 210.29 C59.75 154.4, 109.41 95.25, 191.98 -0.98 M16.02 208.85 C65.83 149.25, 120.76 88.37, 193.8 -1.31 M14.52 211.77 C70.48 143.36, 127.76 77.24, 195.29 0.4 M18.98 213.52 C72.44 139.82, 130.03 76.12, 201.43 2.9 M17.43 211.05 C61.41 165.43, 98.01 119.67, 201.02 0.88 M23.31 211.33 C89.34 133.98, 152.88 55.1, 205.18 0.72 M24.7 210.08 C86.46 134.26, 151.73 60.14, 206.96 1.15 M29.61 211.92 C68.62 165.94, 108.04 117.98, 213.26 -2.04 M27.51 211.54 C75.3 152.91, 123.37 99.3, 211.13 -1 M32.15 213.97 C95.78 144.34, 152.57 75.74, 214.9 -1.12 M33.42 210.69 C78.55 161.62, 119.53 113.71, 218.28 -1.02 M42.02 210 C84.15 161.34, 121.82 112.39, 224.9 2.49 M41.03 210.27 C96.93 144.83, 152.41 79.6, 223.62 0.28 M42.8 209.49 C94.5 152.29, 140.68 100.23, 227.99 -1.06 M45.41 210.74 C108.69 135.38, 172.42 58.81, 228.48 0.21 M50.92 211.6 C96.25 164.59, 134.22 112.98, 235.61 2.71 M50.11 211.44 C88.04 168.58, 126.99 122.13, 233.31 0.48 M55.78 213.66 C107.17 145.01, 168.39 79.66, 235.73 0.6 M53.88 210.76 C124.69 129.62, 196.54 47.6, 237.31 -0.81 M62.41 207.61 C121.39 147.27, 170.76 84.25, 246.83 -0.45 M60.33 209.61 C131.8 127.09, 204.28 45.12, 243.9 -0.51 M68.34 213.18 C122.96 140.15, 180.26 78.54, 248.88 0.63 M64.64 211.62 C111.31 154.74, 160.93 99.72, 247.68 -0.13 M69.45 212.83 C122.38 151.97, 171.86 93.04, 256.09 2.47 M72.37 211.21 C120.12 153.24, 169.72 96.32, 255.67 1.42 M73.75 209.47 C144.02 127.44, 218.06 47.79, 256.97 -2.6 M77.02 212.22 C114.23 167.73, 152.21 123.43, 258.69 -1.18 M82.57 210.65 C120.4 164.97, 159.74 121.63, 263.12 -1.25 M81.91 209.91 C116.42 171.23, 153.51 127.08, 265.52 -0.84 M85.96 212.47 C144.52 146.77, 203.05 77.56, 267.74 0.13 M86.93 209.51 C141.63 147.54, 197.84 80.31, 271.27 0.63 M93.01 208.37 C137.09 153.72, 186.57 92.88, 276 2.67 M92.01 211.29 C159.37 135, 220.9 64.97, 276.14 -0.99 M96.53 209.93 C167.44 130.62, 234.3 53, 281.94 -1.06 M99.2 210.73 C153.26 144.59, 209.08 77.12, 281.43 0.23 M103.42 212.63 C148.78 155.75, 191.25 103.88, 286.59 0.16 M103.86 211.23 C143.78 167.2, 179.84 124.7, 286.81 -0.84 M105.4 210.47 C160.92 145.36, 217.45 87.67, 293.28 1.7 M109.06 211.96 C150.84 158.56, 196.62 107.99, 292.49 1.36 M115.59 210.95 C175.98 142.48, 235.27 72.27, 295.08 -2.01 M113.68 211.37 C165.19 147.55, 215.38 90.31, 296.47 -1.11 M120.82 212.79 C172.3 144.86, 229.53 85.03, 300.79 -2.8 M117.58 210.38 C160.85 160.56, 198.31 115.7, 302.85 1.18 M124.31 208.62 C167.71 166.16, 203.73 125.22, 310.05 -0.78 M125.06 209.8 C167.96 160.42, 211.31 111.05, 306.81 -1.41 M128.7 211.86 C184.25 145.59, 239.28 75.85, 314.88 -1.89 M128.56 210.41 C205.91 126.34, 278.18 43.26, 312.12 -0.54 M135.78 210.26 C179.32 159.06, 221.58 108.3, 317.69 -3.04 M136.64 210.36 C191.91 145.84, 246.99 85.24, 319.18 -0.23 M141.74 211.2 C193.43 151.6, 246.88 89.65, 320.55 -2 M139.3 211.43 C183.26 162.85, 224.74 113.6, 324.15 -1.34 M143.07 207.52 C201.11 147.08, 249.97 89.45, 330.97 -0.94 M145.17 210.28 C195.5 156.09, 246.64 99.76, 328.45 -1.13 M150.25 210.56 C205.05 146.87, 259.93 85.68, 332.65 2.08 M149.87 210.87 C195.19 160.36, 235.4 108.83, 334.8 0.75 M156.13 210.57 C200.67 155.86, 245 106.98, 340.5 -2.68 M157.19 210.23 C214.74 138.64, 275.7 68.87, 338.36 -0.4 M159.05 212.13 C213.7 151.21, 262.34 93.87, 346.74 2.57 M159.97 210.3 C236.14 125.85, 307.66 43.54, 344.2 1.18 M167.62 208.22 C234.1 135.74, 298.34 60.41, 350.73 -1.03 M167.02 211.21 C209.06 160.65, 251.49 110.02, 348.6 1.39 M169.02 208.17 C210.17 162.81, 251.63 109.14, 357.5 -2.83 M172.06 209.36 C236.09 133.69, 303.76 58.07, 353.67 1.08 M179.63 209.29 C224.47 157.57, 271.16 102.65, 357.99 -0.89 M177.43 209.93 C232.4 147.69, 287.22 84.81, 360.48 -0.59 M183.25 211.8 C237.17 151.06, 282.27 96.55, 364.9 1.36 M182.11 211.85 C235.93 147.48, 287.83 87.25, 365.72 1.14 M187.9 208.89 C249.77 145.45, 312.06 73.67, 371.16 -2.5 M186.94 211.13 C233.43 163.64, 273.45 118.72, 369.95 1.44 M194.74 207.8 C258.17 141.16, 322.57 68.84, 374.19 -0.81 M191.9 210.39 C256.06 136.53, 321.24 58, 374.88 -1.42 M199.6 213.75 C267.74 130.88, 338.85 54.7, 383.53 1.67 M198.29 209.89 C247.02 155.85, 296.41 101.6, 382.47 0.24 M204.86 207.96 C258.39 142.47, 318.77 76.2, 389.76 -1.35 M202.88 210.97 C251.52 155.09, 301.87 101.07, 386.06 -0.63 M208.74 211.5 C275.07 132.11, 343.95 60.85, 390.59 3.13 M209.31 210.09 C255.24 160.93, 300.47 107.29, 390.91 -1.11 M217.18 208 C268.18 147.19, 328.52 83.86, 396.68 0.89 M213.07 211.51 C272.82 140.34, 335.22 68.73, 396.17 -0.15 M220.78 213.65 C258.53 159.42, 296.61 113.06, 402.36 1.95 M219.02 212.1 C256.67 163.52, 297.88 119.96, 403.13 1.57 M225.18 212.2 C288.84 142.89, 348.88 75.09, 409.91 0.26 M226.33 210.99 C262.08 165.24, 298.98 122.27, 409.46 -1 M227.99 212.64 C280.1 149.26, 332.06 94.21, 412.6 0.58 M230.7 209.71 C284.13 145.97, 340.5 80.65, 414.39 1.29 M236.85 208.81 C280.3 155.59, 328.61 106.4, 418.95 2.72 M236.95 209.52 C300.58 136.93, 368.07 59.76, 419.1 -1.57 M240.23 212.5 C281.69 164.15, 323.94 116.53, 423.46 -2.27 M239.64 211.63 C293.07 148.11, 347.52 85.76, 422.67 1.36 M243.95 213.06 C291.65 158.29, 334.99 107.41, 430.88 1.26 M245.01 211.39 C310.69 132.74, 377.82 58.73, 428.66 -0.67 M254.21 210.46 C317.39 137.36, 379.26 68.92, 433.11 0.65 M251.53 210.8 C310.17 144.37, 366.66 80.27, 434.85 0.06 M258.88 211.84 C324.46 137.85, 387.04 62.6, 439.6 0.51 M256.44 209.69 C300.45 154.03, 346.41 101.41, 439.85 -0.62 M259.63 209.22 C314.71 152.81, 367.71 94.2, 448.11 0.57 M260.97 212.01 C304.69 159.89, 347.97 109.45, 445.17 -0.15 M264.87 213.64 C320.31 149.36, 369.66 89.19, 450.48 -1.74 M266.94 211.65 C329 142.71, 388.45 73.05, 449.45 -1.1 M269.88 210.79 C319.49 159, 367.75 99.59, 458.77 -2.75 M272.98 210.38 C337.13 136.47, 402.4 64.6, 456.75 1.23 M280.04 208.68 C316.86 157.39, 366.11 104.64, 461.84 -2.21 M276.9 211.09 C349.29 136.38, 416.61 55.74, 461.55 0.84 M285.24 210.38 C337.49 146.27, 398.66 83.92, 463.76 -0.98 M284.56 209.83 C336.76 153.93, 386.96 93.48, 466.23 -0.37 M285.92 210.22 C346.11 148.17, 398.44 88.54, 470.51 2.44 M287.49 211.3 C330.89 162.8, 372.15 113.93, 471.59 -0.72 M292.8 208.68 C333.09 163.66, 370.09 123.77, 476.27 -1.86 M293.92 210.8 C341.57 158.45, 385.93 106.71, 476.07 0.82 M297.58 208.63 C368.55 126.41, 441.08 49.05, 480.53 0.34 M300.22 209.79 C339.56 161.12, 384.07 112.64, 481.24 0.95 M303.38 211.83 C364.74 137.63, 425.35 72.93, 487.08 1.58 M303.54 210.17 C347.88 163.81, 389.39 116.69, 488.38 -0.61 M307.74 208.96 C372.4 129.61, 439.69 56.33, 493.16 -0.33 M310.09 211.33 C378.6 134.61, 447.34 52.53, 491.42 -0.95 M314.64 213.03 C388.9 126.31, 458.16 44.73, 495.35 0.29 M314.01 210.59 C387.24 126.2, 458.7 46.68, 498.8 0.25 M317.48 212.52 C377.61 141.58, 431.92 77.34, 503.27 0.99 M320.99 209.5 C377.85 144.5, 437.5 74.83, 501.82 0.95 M323.39 210.93 C388.69 138.22, 449.16 62.33, 508.58 -0.12 M327.14 211.17 C369.78 158.74, 414.25 107.55, 508.77 0.18 M330.08 210.71 C376.32 160.45, 420.72 103.69, 511.01 -1.93 M330.34 211.25 C371.3 167.3, 406.77 122.9, 513.32 1.32 M337.85 209.68 C386.22 155.85, 435.17 94.55, 518.06 2.23 M336.72 210.6 C390.69 149.04, 443.98 87.73, 519.41 0.16 M338.74 209.64 C380.57 167.89, 421.65 121.67, 521.84 2.44 M341.35 209.31 C388.74 159.15, 430.16 109.17, 524.95 0.51 M346.94 212.75 C399.43 149.62, 447.99 93.52, 529.55 -0.66 M346.96 210.2 C390.59 163.77, 428.14 118.35, 531.47 -0.82 M351.14 211.67 C417.04 134.65, 488.49 56.46, 534.18 0.38 M350.76 209.78 C408.46 145.65, 463.41 83.1, 533.86 1.55 M357.17 210.62 C423.43 129.02, 495.59 45.85, 538.76 -2.12 M357.1 210.88 C402.16 156.49, 448.33 104.63, 542.33 0.43 M364.93 209.28 C422.75 147.48, 474.44 86.75, 545.6 2.08 M364.2 210.64 C426.7 135.03, 488.81 63.19, 544.53 0.85 M368.03 211.57 C413.81 156.75, 453.86 107.83, 549.74 0.79 M367.62 210.03 C406.01 161.76, 444.95 118.41, 552.08 -1.05 M373.75 209.61 C440.46 133.4, 502.54 61.06, 558.95 -1.39 M374.66 211 C412.52 165.46, 451.81 120.22, 556.52 0.57 M378.13 210.9 C424.81 156.45, 479.72 99.05, 562.6 1.11 M380.17 210.74 C431.74 148.76, 486.23 89.31, 563.56 0.15 M385.81 209.95 C436.22 157.38, 483.61 103.42, 570.06 -1.19 M384.02 211.06 C452.58 128.32, 524.6 50.59, 567.5 -0.66 M390.72 210.14 C433.42 158.89, 480.79 104.64, 573.5 0.45 M387.74 210.31 C433.56 162.14, 479.11 110.89, 573.13 -1.79 M393.05 209.97 C450.69 149.4, 505.98 80.66, 580.07 -1.44 M393.81 209.04 C432.82 164.72, 476.82 114.85, 576.35 1.53 M397.88 207.88 C462.8 131.3, 525.52 58.12, 580.2 -2.61 M398.77 209.46 C472.06 129.29, 542.5 47.43, 582.3 1.49 M408.06 211.73 C448.14 166.66, 483.02 118.25, 589.23 -0.78 M405.24 210.43 C480.24 127.79, 553.44 43.96, 589.28 -1.25 M407.26 210.45 C470.07 142.87, 530.84 73.43, 590.72 2.98 M411.73 210.76 C449.44 160.42, 493.96 111.64, 594.19 1.82 M414.92 213.58 C484.84 130.05, 558.78 48.07, 594.94 3.74 M416.1 209.53 C484.28 129.95, 553.13 49.63, 596.38 2.91 M420.16 210.47 C473.44 150.35, 526.03 90.83, 594.45 9.76 M420.77 209.4 C466.64 157, 514.6 104.03, 596.95 8.08 M424.42 210.03 C484.58 145.2, 541.06 72.71, 595.29 13.46 M426.95 210.97 C462.08 169.77, 496.86 128.14, 596.64 15.43 M430.9 212.26 C488.4 142.17, 550.56 69.58, 598.65 20.37 M430.45 209.43 C485.72 149.93, 537.62 89.66, 596.77 19.62 M437.62 210.47 C471.18 170.43, 509.77 130.92, 596.6 24.02 M437.98 211.25 C482.45 159.01, 528.57 105.04, 596.08 25.9 M438.84 213.19 C474.07 168.77, 509.04 132.9, 596.86 30.04 M443.78 211.55 C476.95 172.5, 506.97 133.31, 596.63 33.46 M444.56 207.8 C491.04 168.94, 528.42 121.57, 595.41 40.86 M449.07 211.01 C503.71 144.61, 561.3 77.97, 596.61 39.97 M456.13 209.48 C501.39 156.07, 544.69 107.73, 598.39 43.69 M451.67 209.12 C502 155.66, 552.13 100.51, 596.34 44.64 M457.62 210.79 C488.03 179.73, 517.84 143.95, 600.25 48.94 M459.66 208.7 C494.88 163.6, 531.67 121.83, 597.62 50.19 M466.85 210.43 C504.32 167.68, 538.17 123.12, 595.64 54.51 M463.13 212.02 C497.06 171.58, 531.33 132.23, 596.06 55.15 M471.89 210.44 C503.26 170.46, 531.94 131.88, 600.27 64.61 M468.72 211.28 C500.01 172.62, 529.43 139.17, 598.34 63.47 M474.16 210.97 C511.56 159.17, 555.62 111.77, 597.45 72.73 M475.09 212.59 C511.6 169.55, 548.39 127.84, 595.41 68.55 M483.67 206.68 C513.22 170.76, 546.57 131.16, 593.56 77.56 M478.46 208.72 C504.44 178.36, 529.99 149.11, 596.73 74.4 M488.3 212.17 C518.86 172.32, 546.6 132.77, 600.82 81.96 M485.29 212.53 C528.06 160.86, 568.79 115.7, 597.36 83.54 M492.24 211.27 C516.66 180.11, 545.94 145.19, 595.91 90.27 M491.13 211.44 C517.62 180.28, 540.72 150.65, 597.47 87.46 M495.5 214.24 C519.98 178.56, 557.35 138.17, 598.67 89.75 M497.03 209.85 C532.24 170.81, 569.19 129.72, 597.96 93.25 M499.22 207.79 C518.52 188.35, 541.85 161.13, 597.52 96.62 M499.7 212.26 C535.64 166.22, 576.16 121.49, 598.73 98.69 M504.48 208.56 C536.04 179.56, 565.65 147.02, 600.96 109.29 M507.22 209.85 C533.27 181.21, 559.71 151.12, 599.01 106.68 M511.07 212.67 C529.04 183.27, 552.01 162.77, 594.84 114.37 M510.67 211.18 C532.7 191.63, 548.86 166.64, 595.58 112.32 M514.82 209.65 C542.21 186.77, 563.89 159.44, 597.23 116.15 M518.35 209.25 C534.67 190.88, 550.78 172.89, 598.49 117.55 M519.15 207.75 C554.21 180.73, 580.76 149.06, 593.13 126.15 M520.14 211.91 C548.88 178.78, 576.16 147.82, 598.62 125.77 M524.99 207.14 C548.72 189.93, 567 164.06, 595.86 129.04 M526.43 212.22 C547.78 186.16, 565.79 164.65, 597.98 128.97 M534.35 209.22 C547.49 196.7, 562.75 179.41, 594.56 139.98 M532.43 210.83 C552.33 188.84, 576.64 163.66, 598.04 138.13 M540.3 213.8 C552.92 197.43, 563.2 184.69, 599.49 146.53 M537.08 210.36 C556.88 188.38, 573.22 167.97, 597.96 142.29 M546.46 212.4 C552.84 196.92, 570.01 184.46, 600.85 146.23 M543.42 209.77 C557.29 193.23, 574.63 174.68, 598.25 147.2 M548.99 209.5 C564.78 193.32, 581.11 173.41, 599.56 152.06 M549.45 210.72 C558.29 197.54, 566.65 187.21, 596.42 154 M556.11 207.75 C568.71 191.83, 580.29 176.66, 596.58 158.43 M552.54 211.98 C565.25 196.26, 578.73 183.26, 597.22 162.22 M562.12 213.25 C568.49 201.09, 584.3 182.32, 596.43 166.45 M560.27 211.77 C571.68 199.07, 581.18 183.53, 596.97 168.3 M566.83 212.82 C573.96 199.56, 583.68 194.03, 596.55 173.95 M562.81 210.17 C574.06 202.51, 581.44 193.44, 597.83 172.6 M573.65 211.2 C580.54 199.44, 587.87 186.82, 594.02 180.91 M567.82 211.44 C576.54 204.09, 583.64 196.35, 595.42 178.09 M577.02 208.33 C580.82 209.48, 583.56 198.3, 600.41 187.05 M572.8 210.46 C583.86 203.68, 589.62 190.83, 598.5 184.94 M576.43 212.59 C588.74 206.19, 593.23 196.38, 599.08 189.75 M579.96 211.07 C585.15 205.6, 590.87 198.33, 599.16 189.68 M587.68 210.15 C587.11 208.22, 594.53 203.95, 596.76 193.74 M584.7 212.27 C589.14 206.07, 591.73 202.64, 597.22 195.69 M592.41 210.09 C592.48 208.24, 593.09 205, 596.77 205.16 M590.58 210.83 C591.59 209.51, 593.47 206.37, 597.6 203.55" stroke="#e64980" stroke-width="0.5" fill="none"></path><path d="M0.74 1.07 C155.63 -2.71, 308.86 -4.51, 595.52 -1.23 M0.69 0.61 C123.48 -0.66, 245.43 -0.57, 595.51 0.44 M597.87 -2.57 C595.19 71.32, 592.77 134.25, 597.45 206.09 M595.12 0.32 C596.41 46.01, 597.87 95.6, 593.68 207.92 M596.19 207.07 C433.37 204.4, 273.74 205.49, 1.19 208.53 M595.41 208.69 C457.76 211.43, 318.94 211.04, 0.37 208.38 M-1.71 209.32 C3.49 161.19, 5.53 117.72, 2.38 1.16 M-0.69 207.82 C-3.87 132.18, -3.66 59.03, -0.65 -1.01" stroke="#000000" stroke-width="1" fill="none"></path></g><g transform="translate(10 10) rotate(0 140.5 22.5)"><text x="0" y="32" font-family="Virgil, Segoe UI Emoji" font-size="36px" fill="#000000" text-anchor="start" style="white-space: pre;" direction="ltr">Area of concern</text></g><g stroke-linecap="round" transform="translate(13.796356201172102 396.5830145941841) rotate(0 295.89446597629114 72.0752885606554)"><path d="M0 0 C0 0, 0 0, 0 0 M0 0 C0 0, 0 0, 0 0 M-1.57 7.19 C0.35 2.77, 3.71 2.31, 6.36 1.58 M-0.22 7.18 C2.23 4.28, 3.39 1.92, 5.69 -0.22 M-1.67 14.49 C1.62 5.23, 9.5 2.49, 11.32 0.54 M0.93 11.09 C2.68 8.1, 6.44 3.89, 12.09 -1.47 M2.37 21.4 C3.83 11.19, 9.22 11.92, 18.99 1.23 M-1.17 19.36 C5.48 10.35, 9.77 5.85, 14.65 0.78 M3.49 26.77 C7.84 19.04, 16.29 12.63, 19.71 -1.62 M-0.15 23.35 C5.23 16.19, 10.99 12.26, 19.82 1.12 M3.12 30.87 C8.35 25.17, 16.62 20.32, 24.03 0.44 M0.68 30.06 C8.34 19.25, 20.25 8.64, 27.4 1.93 M3.28 37.08 C8.96 27.91, 13.73 21.24, 32.4 1.38 M0.39 36.8 C8.05 26.97, 17.12 16.47, 31.4 1.89 M-0.54 39.42 C8.36 32.76, 21.42 22.06, 33.35 3.62 M-1.01 42.88 C9.88 29.75, 22.42 18.28, 35.56 -0.68 M-2.12 49.62 C12.14 37.73, 18.04 20.9, 43.96 -3.27 M-0.12 49.44 C13.22 35.7, 23.49 21.49, 42.96 -0.27 M-0.71 52.57 C16.58 35.71, 32.54 17.33, 43.9 -3.76 M-1.21 55.83 C14.71 34.16, 29.89 19.19, 47.15 -0.5 M-2.93 61.1 C12.76 47.58, 29.77 24.92, 55.89 -1.68 M-1.08 59.29 C15.91 45.07, 31.8 26.26, 53.75 1.46 M0.96 63.46 C16.66 49.7, 23.95 36.8, 55.75 2.62 M-0.09 67.23 C22.74 41.21, 44.64 13.09, 59.61 -1.44 M-1.57 74.35 C24.37 48.33, 45.44 19.67, 60.84 -1.08 M0.23 73.2 C16.5 54.71, 32.84 34.55, 62.43 1.45 M-4.09 81.87 C18.87 60.24, 32.82 47.49, 72.1 -2.03 M-0.42 80.71 C17.65 56.87, 37.5 31.13, 67.84 -1.84 M2.66 83.07 C21.6 58.82, 44.14 32.28, 74.55 2.17 M-0.08 83.6 C25.65 53.95, 51.81 26.76, 75.1 1.66 M-3.25 90.69 C29.53 55.06, 62.46 26.05, 83.28 -3.62 M0.5 89.71 C14.72 71.46, 32.15 52.13, 80.16 1.53 M-3.07 96.62 C26.99 62.49, 57.21 30.36, 87.92 -1.4 M-1.08 97.2 C19.46 74.33, 37.87 50.51, 85.31 -0.42 M-0.13 106.95 C14.31 79.74, 33.39 64.03, 90.72 2.8 M1.47 102.47 C30.01 64.87, 61.3 31.29, 90.32 1.46 M-2.52 112.94 C17.64 90.74, 41.51 63.58, 98.96 -2.39 M1.55 108.03 C20.41 84.79, 39.69 64.44, 94.03 0.28 M0.76 118.54 C32.09 81.77, 58.43 50.76, 99 -2.92 M0.7 114.83 C23.86 82.76, 48.98 54.78, 101.52 0.29 M-2.25 123.12 C27.27 89.57, 58.21 56.71, 104.79 3.45 M-0.39 121.95 C44.13 76.42, 82.99 29.7, 105.69 0.4 M1.42 124.98 C31.28 93.96, 65.58 54.94, 107.83 -2.09 M-0.79 126.92 C28.36 94.65, 56.79 64.63, 110.41 1.93 M2.92 132.36 C30.05 101.73, 53.61 71.5, 117.03 0.05 M-1.02 133.62 C40.92 89.09, 81.87 43.02, 115.48 0.88 M-3.1 142.43 C42.98 92.72, 79.74 44.4, 120.02 -1.11 M-0.58 140.17 C34.08 102.51, 65.17 68.58, 123.05 -0.14 M-2.02 144 C53.18 89.69, 99.98 31.35, 124.37 3.9 M-0.37 146.5 C50.02 88.51, 99.18 32.63, 128.01 -0.04 M10.01 144.59 C34.59 112.14, 59.13 85.43, 133.51 0.47 M7.77 146.28 C56.84 90.71, 103.74 38.22, 130.95 1.11 M11.55 142.43 C60.15 84.86, 115.79 30.39, 136.67 -3.33 M11.52 143.82 C42.75 108.83, 77.34 69.15, 137.34 1.72 M14.13 141.89 C64.35 93.17, 111.1 31.92, 141.39 1.99 M17.62 146.36 C53.35 103.48, 85.7 65.95, 143.07 -1.72 M24.37 148.8 C58.68 103.43, 94.6 69.06, 147.55 2.11 M23 144.24 C70.83 91.13, 116.66 34.84, 149.65 1.04 M28.46 141.14 C55.98 117.71, 79.38 85.06, 155.84 1.65 M28.45 146.55 C76.39 91.93, 120.83 39.77, 153.78 1.54 M30.14 147.83 C67.03 108.22, 95.83 76.19, 157.78 -1.12 M33.71 144.69 C66.35 106.65, 100.32 65.63, 158.54 0.35 M35.25 147.47 C77.32 98.97, 114.73 58.54, 168.2 -3.47 M39.12 144.04 C77.41 99.41, 119.03 54.17, 162.92 -1.4 M41.67 147.09 C76.74 111.27, 103.4 74.92, 167.24 0.51 M44.72 143.62 C86.49 94.47, 129.18 48.01, 169.05 1.67 M47.89 144.9 C93.97 97.29, 128.75 51.66, 172.9 -1.39 M47.91 143.6 C92.06 99.16, 129.22 55.77, 175.74 -1.24 M50.92 145.05 C87.1 111.72, 125.5 67.54, 182.95 -0.63 M54.54 145.07 C79.93 113.49, 110.7 78.93, 181.66 -1.43 M62.23 145.09 C84.36 104.69, 116.25 75.83, 183.52 2.71 M59.9 146.3 C102.95 97.7, 145.56 46.36, 186.94 0.86 M60.96 147.03 C92.28 118.84, 117.6 82.57, 187.04 -1.24 M63.12 146.66 C100.63 101.35, 137.01 61.8, 192.29 0.16 M67.23 144.31 C110.73 100.73, 145.7 63.13, 192.76 2.54 M69.57 146.5 C114.22 94.82, 162.34 42.91, 196.66 1.31 M77.98 141.26 C120.62 99.2, 168.2 47.9, 200.76 -3.2 M75.84 143.52 C117.45 96.47, 163.43 46.43, 200.3 -0.85 M80.98 143.94 C127.91 90.66, 181.21 30.35, 204.44 -1.31 M80.87 144.41 C117.59 101.57, 153.24 58.17, 206.46 -1.91 M87.31 146.81 C131.29 88.31, 173.54 39.44, 212.51 2.54 M87.53 144.4 C123.18 97.01, 161.03 53.05, 212.47 -0.22 M89.37 147.52 C129.58 104.66, 157.36 66.14, 217.5 -1.39 M89.83 147.02 C122.79 105.33, 158.31 65.47, 219.37 -1.28 M93.39 141.64 C130.09 105.03, 167.29 66.49, 225.78 3.85 M98.46 143.58 C140.07 95.04, 183.38 45.49, 223.03 1.89 M101.41 145.44 C133.71 114.7, 152.71 88.22, 226.03 0.63 M99.95 144.9 C153.94 90.09, 203.25 31.95, 227.82 0.32 M103.8 142.59 C144.2 107.31, 182.19 64.61, 235.23 -0.48 M106.31 144.9 C151.87 94.24, 191.02 47.87, 233.66 0.84 M109.24 146.97 C147 101.11, 190.18 61.5, 234.55 2.73 M114.13 144.19 C153.2 98.2, 196.14 50.82, 237.05 2.3 M121.23 141.36 C163.85 85.17, 213.24 30.44, 242.6 -0.82 M118.22 145.77 C166.04 89.24, 213.2 36.92, 245.46 -0.43 M120.1 148.25 C169.54 98.12, 209.06 48.01, 252.71 -0.52 M122.73 146.58 C163.63 100.76, 201.81 57.07, 247.7 -0.63 M127.51 144.54 C172.07 98.9, 215.57 51.96, 256.79 -0.63 M126.77 145.17 C167.55 98.31, 206.17 53.64, 254.96 0.61 M132.4 148.31 C184.48 85.42, 233.6 28.2, 259.3 2.58 M131.54 145.32 C182.78 86.46, 232.79 30.42, 259.86 2.07 M139.58 141.59 C167.32 113.89, 194.53 80.35, 261.79 -0.53 M137.97 143.64 C166.43 108.56, 196.25 73.62, 266.15 -2 M143.64 149.05 C193.25 94.77, 246.35 33.06, 268.88 -2.12 M145.8 145.23 C189.68 92.61, 237.38 41.06, 271.75 1.75 M153.51 144.83 C198.43 89.77, 247.52 40.14, 272.75 1.77 M151.26 143.28 C187.22 96.94, 228.14 52.91, 274.44 1.38 M158.45 147.24 C197.82 97.02, 235.39 50.2, 283.16 2.08 M154.16 146.69 C183.36 119.23, 208.33 86.09, 278.98 -0.68 M160.51 141.49 C186.52 110.17, 219.9 79.86, 287.93 3.4 M159.53 143.74 C207.98 86.1, 257.46 33.96, 286.69 -0.05 M164.59 142.52 C201.23 97.25, 242.98 55.05, 290.95 -1.23 M164.74 145.64 C199.61 103.12, 236.8 58.58, 290.64 1.26 M170.24 142.4 C196.15 116.64, 227.03 84.96, 296.71 -3.62 M168.45 147 C216.83 86.92, 266.05 33.8, 297.2 -1.55 M172.95 145.41 C205.86 115.69, 226.57 84.82, 300.22 2.4 M177.07 145.59 C222.86 93.88, 270.2 40.54, 301.23 -0.4 M181.45 147.01 C226.97 90.81, 277.14 39.38, 311.59 -0.38 M179.09 146.34 C218.59 99.84, 259.45 54.63, 307.68 1.21 M185.54 145.32 C232.4 93.67, 272.16 46.34, 314.01 2.31 M186.13 145.6 C229.92 97.9, 272.82 50.92, 310.71 -0.07 M194.07 147.91 C229.12 102.84, 263.04 65.56, 320.23 2.89 M192 146.87 C227.46 108.18, 257.27 71.21, 319.32 0.11 M195.49 142.51 C236.68 93.67, 282.35 48.16, 322.55 2.72 M198.35 144.31 C236.8 103.32, 276.55 58.65, 324.46 1.43 M203.79 143.8 C232.56 105.84, 266.96 76.66, 325.36 -1.18 M201.81 146.49 C254.33 90.73, 299.48 36.72, 328.7 -1.42 M211.06 148.12 C255.81 87.44, 304.48 35.72, 335.14 -1.31 M207.58 143.9 C250.29 93.06, 295.32 44.58, 333.31 0.82 M209.43 148.27 C238.98 116.34, 268.64 75.58, 336.89 -1.05 M212.58 144.68 C254.1 99.22, 293.98 55.25, 339.88 -0.37 M215.64 144.19 C253.04 102.74, 290.7 62.03, 348.23 0.2 M219.1 146.13 C260.21 96.9, 300.12 50.58, 345.5 0.37 M220.95 141.78 C264.84 90.11, 312.15 39.71, 347.16 2.42 M221.84 146.47 C271.56 89.13, 322.12 34.2, 347.68 -1.41 M231.73 147.6 C279.51 87.61, 328.48 27.96, 353.4 0.07 M229.65 144.33 C258.55 108.31, 288.57 74.41, 354.75 -0.05 M235.41 143.67 C265.62 110.71, 291.11 83.71, 357.62 1 M232.54 146.47 C280.62 91.2, 327.12 37.33, 360.32 0.08 M240.98 146.14 C271.51 111.14, 310.72 72.99, 369.34 -1.98 M239.39 143.36 C284.49 95.59, 325.93 48.84, 364.19 0.95 M245.01 148.14 C288.95 102.24, 324.06 55.46, 366.88 -0.41 M245.05 144.83 C293.47 89.51, 338.88 32.14, 371.51 -1.47 M248.14 146.44 C292.01 94.65, 338.83 50.45, 377.88 0.62 M251.93 143.67 C298.04 87.79, 347.11 34.5, 374.39 -1.64 M253.07 148.27 C280.27 113.84, 319.19 75.73, 381.31 -2.8 M257.2 143.28 C298.04 93.85, 337.92 47.23, 383.04 -0.78 M257.09 142.02 C302.92 93.59, 349.45 41.34, 387.96 -2.66 M262.32 145.26 C305.99 92.74, 350.26 43.03, 387.36 0.71 M266.04 144.03 C317.6 89.78, 362.48 36.54, 390.43 3.74 M264.25 145.1 C303.93 108.69, 334.27 68.6, 392.13 -1.05 M270.85 145.29 C301.27 99.58, 336.56 59.42, 395.66 0.52 M273.02 143.71 C325.71 88.09, 372.55 28.05, 398.56 -1.9 M277.5 142.25 C311.22 105.47, 351.88 61.09, 398.88 -0.02 M274.9 143.14 C309.45 105.27, 346.51 59.66, 403.45 2.1 M282.89 148.27 C313.08 113, 336.35 80.61, 408.17 -2.65 M281.31 146.9 C311.9 113.82, 341.47 80.48, 408.85 -1.81 M284.13 148.64 C323.57 101.56, 358.71 61.9, 410.41 1.56 M287.28 143.82 C313.61 115.61, 339.36 85.26, 413.12 0.62 M295.79 143.59 C334.45 100.46, 367.76 57.13, 419.81 -2.07 M293.84 144.01 C330.17 98.91, 375.08 49.92, 420.58 -1.8 M301.77 143.78 C331.74 105.78, 367.05 64.68, 419.91 3.01 M296.98 143.11 C329.11 107.64, 361.49 74.87, 424.66 2.01 M301.28 145.04 C344.77 100.86, 379.99 64.66, 428.04 3.22 M302.76 146.04 C332.45 113.06, 355.19 80.57, 429.5 0.93 M309.36 147.13 C349.43 95.06, 391.19 55.4, 437.38 1.71 M308.99 146.54 C355.54 88.89, 405.88 34.22, 433.07 1.34 M314.86 144.5 C359.17 95.18, 404.2 45.58, 441.42 -2.96 M312.29 146.83 C354.94 98.84, 393.46 53.38, 440.81 -1.29 M320.96 145.03 C359.95 107.41, 390.32 62.17, 447.97 -2.05 M317.77 145.21 C344.62 111.77, 375.11 82.52, 444.75 1.24 M327.17 144.76 C363.59 92, 414.16 40.53, 447.65 2.11 M326.1 143.74 C358.59 106.98, 392.21 67.12, 449.14 1.46 M329.79 146.68 C377.24 98.1, 421.1 44.49, 451.92 2.87 M331.2 143.79 C364.72 108.47, 397.02 69.57, 457.56 -0.1 M335.97 143.45 C385.22 89.82, 429.98 33.6, 461.56 0 M335.3 145.72 C374.73 104.6, 411.39 58.78, 462.57 0.66 M340.16 144.17 C382.83 96.47, 425.86 53.93, 464.64 -1.51 M338.61 144.49 C377.94 103.93, 412.27 64.49, 464.79 -0.93 M346.14 149.1 C382.57 97.61, 422.66 58.25, 468.43 3.95 M346.43 145.28 C392.22 88.12, 442.09 33.24, 469.95 2.08 M351.51 144.45 C396.9 92.06, 444.39 36.42, 476.62 1.7 M350.76 143.11 C391.47 94.9, 435.6 45.91, 475.18 0.08 M353.7 149.11 C387.12 104.68, 427.21 59.99, 482.65 -0.24 M357.46 146.48 C397.07 97.95, 435.29 56.76, 483.54 -1.16 M358.43 145.37 C387.62 113.52, 414.59 75, 485.51 0.29 M359.84 144.99 C407.19 91.89, 451.13 37.87, 488.89 -0.19 M369.77 141.74 C391.27 114.29, 417.47 82.68, 495.76 -1.6 M365.81 144.95 C415.62 87.02, 464.51 31.04, 491.07 -0.17 M374.6 143.63 C420.17 88.8, 464.56 36.18, 496.05 0.88 M371.49 145.04 C419.27 90.21, 467.1 39.92, 497.52 -1.31 M380.62 144.15 C418.2 94.67, 461.71 46.51, 503.08 0.96 M376.34 143.89 C430.62 88.69, 479.57 30.1, 502.37 -1.22 M384.86 142.81 C419.77 101.81, 456.95 63.4, 512.14 -2.98 M384.79 143.73 C415.21 109.9, 443.72 75.99, 508.12 0.73 M387.64 144.35 C427.8 101.08, 461.25 60.2, 511.07 -0.6 M389.35 146.04 C438.45 87.23, 489.49 30.06, 512.7 -1.01 M393.14 145.38 C421.04 119.74, 449.05 83.55, 520.79 1.09 M392.24 143.11 C434.57 94.87, 479.46 42.59, 519.16 1.49 M399.33 141.24 C435.67 109.08, 469.73 67.41, 521.29 0.54 M400.55 145.73 C436.23 102.63, 474.15 60.93, 522.75 1.29 M405.86 145.42 C452.2 94.4, 500.42 39.92, 532.12 -3.64 M403.14 143.53 C445.78 93.21, 489.03 42.72, 528.56 0.12 M407.33 144.59 C444.54 102.25, 482.55 63.37, 538.43 2.11 M409.11 144.84 C450.31 95.68, 492.25 48.74, 534.66 0.1 M410.54 141.63 C455.33 89.23, 500.63 43.29, 539.41 0.99 M414.18 144.63 C457.3 96.48, 500.64 44.42, 541.69 -0.7 M418.39 143.05 C459.05 103.4, 494.12 60.13, 546.33 0.67 M421.65 144.81 C463.04 92.95, 507.35 44.41, 544 -0.61 M427.84 141.85 C467.08 92.4, 502.62 49.47, 551.03 -4.02 M425.54 145.9 C469.15 95.21, 513.44 45.53, 551.32 1.28 M430.41 144.15 C477.74 87.49, 521.79 39.46, 555.93 -0.3 M432.21 146.64 C474.55 94.78, 521.24 40.81, 555.79 0.7 M434.2 144.04 C463.53 109.73, 489.7 77.31, 558.5 -2.75 M435.47 143.62 C470.62 112.54, 502.17 76.51, 561.69 -0.12 M440.39 142.26 C468.89 105.63, 507.33 70.85, 565.3 1.52 M442.25 146.9 C491.37 87.25, 537.36 29.75, 568.47 -0.87 M449.2 145.03 C493.73 99.03, 537.28 47.45, 576.45 -0.44 M447.67 143.65 C497.98 89, 547.1 33.59, 572.46 0.49 M452.46 142.68 C501.48 90.13, 549.8 43.61, 575.64 -0.65 M452.7 145.73 C498.85 91.35, 545.18 39.09, 577.93 -0.66 M455.54 148.53 C502.75 87.71, 548.97 37.96, 585.97 1.31 M455.28 145.38 C484.7 115.67, 510.82 83.96, 582.09 0.79 M461.9 145.54 C489.22 113.3, 512.13 85.54, 591.26 1.26 M463.92 146.8 C496.71 103.71, 527.84 65.52, 589.49 -0.45 M471.04 149.13 C507.07 98.8, 551.42 47.7, 592.63 2.26 M468.87 145.8 C497.27 109.39, 527.71 77.29, 593.77 0.55 M471.07 145.87 C511.08 98.01, 543.67 57.81, 589.73 5.02 M471.69 145.39 C495.1 114.34, 522.05 84.73, 592.01 6.34 M476.64 148.29 C506.31 105.73, 543.82 69.55, 590.57 9.14 M476.45 143.44 C505.22 113.26, 531.4 83.35, 591.64 11.14 M481.49 141.56 C517.56 107.76, 554.13 66.69, 590.25 15.69 M483.25 144.3 C516.54 104.09, 547.92 68.67, 594.34 20.3 M488.42 146.33 C526.34 102.74, 564.37 52.73, 592.79 24.9 M487.46 146.4 C517.53 107.92, 551.32 71.38, 590.96 24.88 M493.8 141.39 C532.62 99.8, 567.62 62.11, 596.44 31.2 M493.26 145.91 C521.2 118.92, 542.95 89.68, 592.02 33.56 M501.58 142.48 C521.98 123.75, 545.54 95.42, 593.53 34.69 M500.81 144.35 C534.26 105.53, 569.51 67.04, 592.59 36.96 M507.76 141 C539.34 103.63, 570.16 66.04, 592.46 39.89 M503.83 144.18 C530.18 117.37, 553.99 90.76, 591.47 43.34 M506.43 142.8 C534.65 109.71, 561.47 84.9, 593.53 51.27 M508.8 144.5 C533.15 119.99, 555.51 93.17, 592.15 50.89 M513.59 147.66 C531.4 125.55, 545.81 107.09, 590.26 52.2 M515.84 145.35 C530.91 123.71, 548.86 104.64, 593.2 55.67 M520.43 144.27 C532.9 126.62, 552.73 108.68, 594.61 64.03 M521.2 143.64 C542.28 116.15, 565.81 92.56, 590.69 63.47 M526.61 145.27 C539.27 123.26, 557 110.08, 596.9 69.49 M523.59 144.99 C550.87 117.37, 573.02 88.78, 591.16 66.16 M532.14 142.71 C553.93 124.28, 572.82 97.78, 595.75 75.51 M529.21 144.12 C551.36 123.6, 566.77 103.34, 594.73 73.35 M535.31 146.84 C558.4 120.26, 579.45 90.03, 589.94 76.7 M534.83 144.47 C551.27 126.79, 567.37 110.67, 592.07 80.73 M541.27 148.83 C558.13 120.74, 580 103.26, 595.7 82.35 M541.46 145.85 C554.42 130.79, 566.63 117.42, 594.86 85.96 M543.95 143.54 C560.79 124.57, 579.1 106.99, 592 95.43 M545.42 144 C557.52 130.64, 572.44 116.49, 594.08 92.58 M550.63 148.23 C568.31 127.05, 580.69 114.93, 592.36 100.07 M552.02 146.3 C566.73 130.73, 581.5 116.51, 593.12 98.31 M555.9 145.37 C571.19 133.93, 577.02 123.79, 594.88 108.37 M558.65 143.33 C569.63 129.74, 581.89 116.85, 594.79 102.76 M566.18 141.35 C571.9 134.42, 579.96 133.15, 590.07 107.82 M564.42 144.52 C572.12 133.08, 582.26 123.2, 594.35 111.72 M565.69 149.24 C576.52 139.05, 580.74 128.49, 594.15 120.36 M569.26 145.77 C577.34 136.82, 581.76 128.07, 593.9 117.11 M572.98 143.53 C580.77 138.06, 583.29 137.55, 594.29 125.36 M575.58 145.09 C581.04 136.49, 590.2 127.17, 592.77 124.81 M574.94 146.91 C577.72 143.43, 583.49 136.69, 596.5 127.12 M579.4 146.21 C582.79 137.93, 588.11 135.23, 592.53 127.05 M583.6 144.94 C584.51 144.83, 590.28 142.53, 592.03 136.71 M584.04 145.72 C586 142.46, 587.54 139.68, 592.34 134.39 M590.06 146.17 C591.07 144.04, 591.46 143.01, 593.19 141.08 M589.62 145.68 C590.72 143.5, 591.65 142.29, 592.57 141.66" stroke="#be4bdb" stroke-width="0.5" fill="none"></path><path d="M1.56 1.54 C149.72 -2.61, 300.08 -3.32, 591.01 -1.45 M-0.24 0.36 C188.83 -1.35, 379.03 -1.43, 591.17 0.41 M594.06 1.06 C589.8 29.47, 587.79 66.31, 595.05 147.67 M593.48 -0.92 C592.39 56.06, 589.94 109.26, 590.45 144.63 M590.83 145.57 C397.38 141.48, 199.19 142.37, -1.1 143.96 M591.45 143.93 C438.48 145.3, 285.01 145.45, -0.41 143.54 M0.15 141.78 C0.8 106.26, -0.11 63.2, -0.75 2.86 M1.92 143.92 C-0.84 101.74, -0.1 57.11, 0.21 0.51" stroke="#000000" stroke-width="1" fill="none"></path></g><g transform="translate(10 339.0858459472656) rotate(0 140.5 22.5)"><text x="0" y="32" font-family="Virgil, Segoe UI Emoji" font-size="36px" fill="#000000" text-anchor="start" style="white-space: pre;" direction="ltr">Area of concern</text></g><g stroke-linecap="round" transform="translate(41.46910264757014 96.53350587875218) rotate(0 266.78110758463544 37.732442220052064)"><path d="M2.77 -3.78 L531.47 -3.53 L530.03 74.85 L1.7 73.35" stroke="none" stroke-width="0" fill="#ced4da"></path><path d="M1.21 0.21 C186.53 -2.23, 371.58 -2.45, 533.23 1.38 M-0.35 -0.08 C107.49 2.52, 213.91 1.83, 533.23 0.38 M534.2 -3.18 C530.44 29, 536.09 58.32, 530.34 73.66 M535.21 -0.42 C532.91 14.28, 533.9 32.46, 533.99 75.86 M533.42 76.28 C332.66 74.51, 136.38 75.33, -0.67 76.07 M532.86 76.06 C322.07 79.84, 110.66 79.83, -0.49 74.83 M-3.51 77.73 C-1.16 55.9, 1.24 36.54, 3.8 -3.26 M0.77 77.16 C-0.43 56.51, -1.42 33.12, 0.05 1.76" stroke="#000000" stroke-width="1" fill="none"></path></g><g transform="translate(236.35909695095552 115.40593222966368) rotate(0 69 17.5)"><text x="69" y="25" font-family="Virgil, Segoe UI Emoji" font-size="28px" fill="#000000" text-anchor="middle" style="white-space: pre;" direction="ltr">Component</text></g><g stroke-linecap="round" transform="translate(41.46910264757014 186.22766888330943) rotate(0 76.16699218749994 37.732442220052064)"><path d="M-0.52 0.47 L155.46 3.18 L150.02 72.09 L-2.59 75.95" stroke="none" stroke-width="0" fill="#ced4da"></path><path d="M2.76 -2.59 C55.68 -2.42, 104.09 -2.93, 156.17 -1.58 M0.95 1.91 C44.54 3.36, 90.85 3.56, 151.71 -0.54 M153.81 3.37 C153.27 31.02, 150.97 54.78, 152.86 77.37 M153.45 0.11 C150.61 20.66, 149.8 43.01, 153.85 77.34 M153.75 78.78 C110.47 76.74, 68.91 74.81, -3.12 75.33 M153.48 75.48 C113.79 76.94, 73.91 74.84, 0.7 75.37 M2.02 78.49 C3.38 51.74, 2.56 18.59, -0.54 -0.19 M-1.47 74.3 C0.03 51.56, 0.49 28.08, -1.34 -0.94" stroke="#000000" stroke-width="1" fill="none"></path></g><g transform="translate(49.99719916449715 206.8904598175543) rotate(0 69 17.5)"><text x="69" y="25" font-family="Virgil, Segoe UI Emoji" font-size="28px" fill="#000000" text-anchor="middle" style="white-space: pre;" direction="ltr">Component</text></g><g stroke-linecap="round" transform="translate(229.274481879341 186.22766888330943) rotate(0 76.16699218749994 37.732442220052064)"><path d="M2.91 -2.68 L148.89 -2.53 L154.96 72.29 L1.97 75.25" stroke="none" stroke-width="0" fill="#ced4da"></path><path d="M-2.54 -3.06 C48.32 -1.71, 94.86 4.14, 156.18 0.81 M-1.39 0.83 C41.58 -1.87, 81.73 -2.04, 154.11 1.96 M155.19 1.38 C151.33 25.99, 150.94 47.55, 152.18 78.11 M153.87 1.07 C153.73 29.77, 150.11 57.89, 151.59 75.54 M151.01 72.41 C113.14 70.52, 67.4 73.22, 1.6 76.76 M153 77.36 C97.41 73.33, 41.87 74.56, -1.95 74.61 M-0.85 78.1 C-0.59 45.05, -1.58 21.91, 2.6 1.63 M-1.38 76.77 C0.02 48.45, 1.39 22.54, 0.31 -1.97" stroke="#000000" stroke-width="1" fill="none"></path></g><g transform="translate(237.80257839626802 206.8904598175543) rotate(0 69 17.5)"><text x="69" y="25" font-family="Virgil, Segoe UI Emoji" font-size="28px" fill="#000000" text-anchor="middle" style="white-space: pre;" direction="ltr">Component</text></g><g stroke-linecap="round" transform="translate(418.63381618923677 185.39250449528856) rotate(0 76.1669921875 37.732442220052064)"><path d="M1.79 3.94 L149.04 0.03 L151.29 77.93 L3.32 77.7" stroke="none" stroke-width="0" fill="#ced4da"></path><path d="M-1.99 3.95 C34.09 -0.23, 73.96 4.29, 153.87 2.08 M-1.18 -0.79 C47.29 1.51, 91.29 1.78, 151.93 0.25 M150.54 -3.57 C149.78 24.07, 156.17 55.02, 154.96 76.45 M152.32 -1.07 C151.68 16.31, 152.96 29.25, 152.03 74.7 M150.73 78.08 C92.15 71.57, 37.41 78.12, -0.57 75.62 M154.26 75.35 C111.73 77.02, 74.07 74.74, -1.34 77.22 M-1.65 71.76 C2.76 49, -0.4 28.5, -1.42 3.4 M-1.02 74.68 C-1.2 57.65, -3.29 41.81, 1.23 1.11" stroke="#000000" stroke-width="1" fill="none"></path></g><g transform="translate(427.1619127061638 206.05529542953343) rotate(0 69 17.5)"><text x="69" y="25" font-family="Virgil, Segoe UI Emoji" font-size="28px" fill="#000000" text-anchor="middle" style="white-space: pre;" direction="ltr">Component</text></g><g stroke-linecap="round" transform="translate(46.96928575303832 427.88146730453354) rotate(0 118.77756754557288 37.732442220052064)"><path d="M-0.09 0.42 L238.5 2.73 L237.37 78.2 L-1.78 72.71" stroke="none" stroke-width="0" fill="#ced4da"></path><path d="M-0.05 -0.84 C83.26 0.48, 169.53 -3.48, 237.42 -0.57 M-1.42 0.48 C57.91 2.15, 115.13 2.87, 236.12 0.46 M234.21 -3.65 C234.76 20.2, 238.29 39.29, 235.89 78.94 M236.97 -1.07 C238.2 16.6, 237.81 35, 238.64 73.81 M240.41 76.89 C169.36 75.69, 104.42 75.08, -1.52 74.08 M238.23 77.06 C181.05 77.54, 122.36 77, 0.9 74.09 M3.2 74.82 C1.44 45.31, -2.88 18.76, -1.22 -3.26 M0.85 75.21 C1.16 56.44, 0.64 38.37, -1.73 -0.24" stroke="#000000" stroke-width="1" fill="none"></path></g><g transform="translate(103.66408962673631 446.7538936554449) rotate(0 69 17.5)"><text x="69" y="25" font-family="Virgil, Segoe UI Emoji" font-size="28px" fill="#000000" text-anchor="middle" style="white-space: pre;" direction="ltr">Component</text></g><g stroke-linecap="round" transform="translate(335.79171413845506 427.88146730453354) rotate(0 118.77756754557288 37.732442220052064)"><path d="M-3.81 2.12 L239.32 2 L241.27 76.09 L-3.72 74.27" stroke="none" stroke-width="0" fill="#ced4da"></path><path d="M-2.85 -2.63 C82.73 -1.79, 164.92 -0.26, 240.5 2.84 M-0.95 -0.02 C86.44 -2.6, 173.34 -2.53, 237.27 0.96 M238.17 0.3 C241.76 18.81, 242.4 38.65, 235.12 71.98 M239.26 0.69 C237.65 27.98, 238.53 56.42, 238.01 76.3 M240.18 76.12 C150.01 78.82, 69.91 77.46, -1.6 74.85 M236.77 76.64 C150.82 76.61, 62.76 75.82, 0.09 75 M1.56 78.19 C2.31 59.5, -0.41 40.54, 3.88 3.52 M-0.16 76.04 C-1.72 43.79, 0.8 13.83, 0.65 0.87" stroke="#000000" stroke-width="1" fill="none"></path></g><g transform="translate(392.48651801215306 446.7538936554449) rotate(0 69 17.5)"><text x="69" y="25" font-family="Virgil, Segoe UI Emoji" font-size="28px" fill="#000000" text-anchor="middle" style="white-space: pre;" direction="ltr">Component</text></g></svg>