<svg version="1.1" xmlns="http://www.w3.org/2000/svg" viewBox="0 0 388.6828613733252 641.0655721028643" width="1166.0485841199757" height="1923.1967163085928">
  <!-- svg-source:excalidraw -->
  
  <defs>
    <style>
      @font-face {
        font-family: "Virgil";
        src: url("https://excalidraw.com/Virgil.woff2");
      }
      @font-face {
        font-family: "Cascadia";
        src: url("https://excalidraw.com/Cascadia.woff2");
      }
    </style>
  </defs>
  <rect x="0" y="0" width="388.6828613733252" height="641.0655721028643" fill="#ffffff"></rect><g stroke-linecap="round" transform="translate(11.316935653901169 10) rotate(0 180.62053680419916 49.335903591579836)"><path d="M0 0 C0 0, 0 0, 0 0 M0 0 C0 0, 0 0, 0 0 M0.66 7.7 C-0.15 5.06, 2.57 4.39, 5.07 1.31 M-0.16 6.7 C0.82 4.4, 2.66 3.29, 4.96 0.31 M-0.66 15.23 C1.73 9.8, 8.7 5.08, 8.15 -1.01 M-1.28 13.39 C3.21 6.84, 6.6 2.51, 10.92 -0.53 M-2.77 16.56 C0.98 14.61, 9.26 8.96, 16.32 1.77 M0.59 16.87 C5.32 13.69, 11.49 6.11, 16.13 2.18 M1.15 23.81 C10.01 12.7, 13.98 6.28, 19.27 -1.65 M-1.54 22.09 C7.81 15.52, 15.51 7.13, 22.53 -1.57 M-0.71 29.03 C5.35 26.41, 12.03 14.39, 26.38 -1.02 M1.38 29.73 C10.1 17.63, 18.79 5.73, 24.57 0 M0.94 40.13 C7.79 22.77, 19.79 12.42, 28 3.34 M-1.45 38.09 C9.06 28.45, 15.05 21.18, 31.77 -0.61 M3.09 39.26 C15.92 27.52, 25.68 11.59, 38.22 1.6 M-1.33 42.08 C11.96 30.76, 22.67 14.97, 37.08 0.06 M-2.83 52.24 C12.78 28.75, 29.04 8.55, 44.99 3.56 M1.54 47.83 C8.32 39.59, 18.98 26.95, 43.83 -1.2 M-1.58 50.58 C18.83 38.35, 38.1 17.34, 45.54 0.03 M0.34 55.77 C16.61 36.76, 32.31 18.79, 46.07 0.14 M1.39 64.76 C16 44.38, 29.47 25.72, 52.4 -0.05 M1.95 59.09 C10.94 45.95, 26.49 29.08, 51.42 -1.33 M1.27 70.19 C19.66 48.77, 34.35 23.33, 56.93 -0.23 M1.19 66.8 C11.35 54.74, 25.12 36.76, 57.5 1.47 M0.68 72.71 C13.68 55.52, 36.06 34.28, 67.25 -3.42 M0.49 74.36 C17.47 54.75, 33.33 37.83, 62.78 -1.56 M0.46 82.15 C15.27 57.25, 32.58 35.14, 71.83 -2.54 M1.53 78.36 C22.11 52.12, 48.5 25.49, 66.92 0.72 M-3 86.23 C16.17 63.08, 28.78 48.02, 77.43 0.65 M-0.55 83.56 C19.01 63.88, 40.67 41.84, 73.72 -0.99 M1.75 91.91 C16.21 70.53, 32.09 51.82, 80.6 -3.15 M-0.74 93.34 C26.11 62.24, 47.44 35.83, 79.43 2 M-1.46 99.33 C24.47 69.17, 46.83 41.61, 81.71 -1.53 M-1.98 96.79 C27.88 62.66, 58.12 29.85, 83.65 -1.3 M1.02 104.29 C20.14 75.44, 44.81 58.22, 88.43 0.84 M3.15 100.3 C34.01 66.38, 60.48 32.13, 89.69 0.85 M6.17 101.83 C32.78 74.17, 59.88 39.89, 97.74 3.5 M6.81 100.28 C36.42 66.54, 66.5 32.93, 95.48 1.27 M15.01 100.94 C36.45 76.76, 56.07 48.96, 99.41 3.44 M11.48 102.96 C46.76 62.52, 79.39 23.97, 101.91 0.25 M20.59 100.03 C43.67 64.6, 75.94 34.85, 106.04 0.31 M18.87 101.05 C40 76.16, 57.46 56.86, 107.73 -0.09 M20.19 103.47 C51.04 71.29, 71.96 45.24, 108.51 -2.23 M22.94 99.33 C41.51 76.07, 65.07 52.73, 109.9 -1.39 M28.63 103.58 C64.67 67.23, 92.36 21.28, 113.35 1.36 M28.12 101.79 C61.65 62.64, 96.85 26.51, 117.81 2.02 M33.79 97.86 C51.1 78.15, 67.93 60.24, 125.54 0.09 M33.7 102.03 C53.02 79.81, 69.87 59.43, 120.99 1.78 M42.61 102.25 C65.53 70.74, 94.78 34.07, 123.26 3.94 M40.67 101.6 C70.11 66.71, 97.31 34.2, 128.67 2.15 M44.59 104.41 C64.28 72.23, 88.23 47, 135.23 1.8 M44.13 100.4 C63.6 78.66, 82.58 56.63, 132.09 -0.93 M49.76 100.91 C76.24 75, 99.95 42.21, 140.25 2.78 M52.16 99.03 C67.66 79.25, 84.53 59.47, 136.83 -1.41 M52.23 98.57 C73.33 79.04, 91.89 53.68, 145.16 1.4 M54.18 101.19 C85.94 67.16, 114.7 37.26, 141.69 -0.8 M60.15 103.59 C86.56 68.6, 110.68 41.37, 148.35 2.93 M59.82 100.05 C87.71 70.43, 112.5 41.68, 147.06 2.26 M67.24 98.91 C88.9 68.91, 110.29 41.17, 153.78 -3.47 M67.34 100.61 C97.35 63.76, 133.11 25.15, 153.81 -1.67 M74.75 97.41 C101.78 66.02, 139.42 27.32, 158.46 -3.4 M70.45 102.08 C92.85 77.14, 111.56 56.01, 159.66 1.57 M79.01 103.14 C106.35 58.55, 144.82 17.06, 166.44 -0.06 M74.7 100.28 C109.63 64.57, 143.47 24.45, 166.06 0.08 M85.39 100.63 C99.83 79.93, 114.42 56.33, 168.33 3.1 M80.38 101.98 C103.59 74.55, 121.88 52.46, 170.53 -1.67 M87.81 104.08 C112.23 70.21, 131.74 47.01, 171.33 -0.47 M86.88 99.29 C116.76 66.34, 145.93 30.75, 173.59 -0.52 M90.77 98.64 C125.38 61.01, 152.07 28.52, 178.63 -3.11 M91.54 100.04 C120.53 68.88, 149.82 37.04, 179.1 -0.2 M96.79 97.67 C128.13 68.55, 153.99 42.53, 187.54 -1.71 M98.07 102.14 C117.6 81.75, 136.29 62.47, 185.13 -0.99 M104.48 99.95 C121.98 79.87, 140.97 58.58, 192.88 3.54 M103.39 99.98 C128.37 74.5, 151.93 44.75, 192.37 -1.31 M111.97 98.98 C133.1 70.55, 162.08 40.23, 193.03 -1.63 M110.02 102.78 C136.25 69.15, 163.05 38.03, 194.97 0.6 M114.98 104.19 C137.36 64.14, 164.72 35.99, 201.46 3.74 M112.96 100.97 C136.23 78.55, 151.63 56.08, 200.92 1.12 M118.25 102.21 C150.19 64.55, 178.96 23.93, 204.65 1.03 M120.06 100.6 C149.06 63.47, 180.97 28.02, 206.95 1.58 M125.6 102.12 C143.56 79.24, 162.07 54.54, 213.65 -2.68 M122.87 101.63 C146.8 72.22, 169.44 48.37, 210.88 -1.33 M127.4 104.69 C161.56 70.97, 186.43 38.09, 214.08 -1.36 M129.06 100.41 C152.17 76.59, 170.48 54.52, 218.49 -1.23 M137.9 100.39 C157.44 76.86, 172.63 52.07, 225.6 3.23 M136.61 100.74 C162.45 69.27, 187.88 38.19, 223.93 0.36 M138.06 98.86 C165.29 70.06, 186.61 46.92, 227.93 -1.27 M141.47 100.49 C171.14 65.05, 200.92 26.54, 228.56 0.38 M146.28 102.48 C169.99 81.03, 184.88 53.57, 236.33 3.53 M145.22 102.27 C164.28 81.53, 183.06 57.78, 233.34 0.62 M151.76 104.3 C173.46 69.48, 206.3 38.3, 234.98 0.67 M149.28 100.52 C183.39 62.31, 219.23 21.92, 237.04 -1.16 M158.02 97.3 C187.73 70.35, 206.88 40.2, 247.73 -0.58 M155.32 99.9 C190.37 60.72, 224.91 22.84, 243.91 -0.65 M164.89 103.69 C190 64.7, 216.51 39.82, 248.9 0.73 M160.08 101.65 C182.99 74.26, 207.72 48.48, 247.34 -0.26 M163.98 104.1 C191.55 74.55, 213.37 46.83, 256.58 3.23 M167.78 101.99 C188.86 73.23, 212.82 45.85, 256.04 1.87 M168.73 98.87 C202.05 58.83, 239.19 23.3, 256.22 -3.47 M172.98 102.45 C190.99 79.83, 208.66 58.71, 258.46 -1.62 M177.86 101.27 C195.6 78.59, 216.04 57.57, 262.53 -1.59 M176.99 100.31 C193.23 83.34, 211.03 60.93, 265.65 -1.06 M181.42 102.78 C208.27 71.61, 235.94 37.33, 267.04 0.09 M182.69 98.93 C209.49 71.49, 236.39 37.2, 271.63 0.74 M188.24 98.31 C206.91 75.18, 231.12 42.23, 276.09 3.51 M186.94 102.11 C221.1 63.51, 249.81 31.46, 276.27 -1.24 M191.98 99.49 C228.45 61.79, 259.19 25.5, 282.31 -1.45 M195.45 100.53 C219.95 69.56, 246 35.35, 281.64 0.23 M198.58 103.87 C221.04 72.96, 238.26 49.25, 286.66 0.26 M199.15 102.05 C218.66 79.5, 234.78 59.63, 286.94 -1.04 M200.3 100.2 C228.33 67.5, 257.8 43.16, 293.87 2.16 M205.08 102.14 C223.56 74.99, 246.02 51.88, 292.83 1.72 M211.21 101.69 C240.16 69.06, 268.98 33.29, 294.51 -2.55 M208.73 102.24 C233.67 69.37, 256.6 43.64, 296.31 -1.38 M217.17 103.23 C238.77 66.89, 267.45 41.71, 300.43 -3.7 M212.96 100.09 C235.79 74.99, 251.54 54.57, 303.12 1.49 M219.35 98.67 C242.74 79.07, 258 62.16, 310.79 -0.95 M220.34 100.21 C241.09 76.7, 262.32 52.95, 306.57 -1.76 M224.23 102.03 C249.99 70.95, 275.12 33.67, 315.56 -2.5 M224.04 100.14 C262.36 59.42, 296.16 20.62, 311.97 -0.73 M231.08 100.81 C251.57 75.33, 271.21 49.94, 317.52 -3.87 M232.2 100.94 C258.11 68.84, 285.47 40.97, 319.47 -0.22 M238 101.18 C262.48 72.3, 288.85 41.36, 319.74 -2.62 M234.82 101.48 C257.46 77.22, 276.43 53.42, 324.43 -1.77 M237.36 97.26 C269.78 69.14, 289.72 44.35, 331.6 -1.13 M240.1 100.86 C264.26 75.16, 290.32 48.43, 328.32 -1.38 M245.21 101.12 C270.52 70.28, 297.5 41.77, 332.29 2.7 M244.71 101.51 C268.33 77.69, 285.62 50.94, 335.09 0.97 M252.02 100.26 C272.06 72.26, 292.29 51.74, 340.8 -3.39 M253.39 99.82 C279.8 65.06, 308.52 32.48, 338.02 -0.41 M253.46 103.16 C282.52 72.39, 304.81 44.95, 347.42 3.34 M254.65 100.79 C293.73 60.27, 328.1 20.69, 344.11 1.54 M263.76 97.21 C295.44 63.71, 325.03 27.82, 351.11 -1.45 M262.97 101.1 C283.25 77.66, 302.24 53.46, 348.34 1.69 M263.23 98.02 C283.8 80.37, 302.87 50.66, 358.22 -3.67 M267.18 99.58 C297.88 64.35, 331.17 28.95, 353.23 1.41 M276.18 98.61 C296.58 74.81, 319.78 46.54, 357.36 -1.26 M273.33 99.45 C299.74 70.37, 324.89 41.67, 360.6 -0.87 M278.54 102.75 C306.01 71.66, 324.23 47.29, 362.68 4.05 M277.06 102.83 C302.59 70.1, 326.53 41.87, 363.75 3.77 M283.74 98.11 C310.48 74.18, 339.8 40.29, 364.07 4.95 M282.49 101.02 C305.14 78.96, 321.57 61.5, 362.49 10.09 M290.29 97.56 C315.06 73.2, 342.81 43.57, 361.07 13.31 M286.6 100.93 C313.86 71.84, 340.1 37.04, 361.96 12.51 M295.76 104.45 C318.44 68.3, 347.29 42.42, 366.46 22.47 M294.06 99.42 C311.67 78.71, 331.63 59.09, 365.09 20.61 M300.26 97.78 C317.5 74.37, 341.21 51.23, 367.62 24.69 M297.68 101.7 C314.66 80.53, 334.98 62.24, 362.81 25.63 M304.46 101.52 C325.63 72.85, 350.27 54.89, 361.95 36.46 M305.2 99.69 C320.06 85.95, 333.28 68.64, 362.37 30.94 M313.09 97.84 C324.24 83.59, 345.71 66.83, 362.27 40.45 M307.74 102.41 C325.81 80.46, 344.94 58.66, 361.61 39.1 M316.92 104.34 C325.47 84.7, 332.6 73.18, 363.57 47.01 M314.63 102.32 C323.78 87.16, 337.67 76.17, 364.57 46.51 M320.29 103.32 C336.14 84.52, 350.44 69.73, 365.79 51.72 M321.79 101.74 C330.24 90.04, 338.08 80.33, 365.2 50.07 M323.1 103.03 C337.42 84.77, 349.16 77.43, 363.2 57.31 M326.63 99.21 C337.22 86.7, 349.07 72.47, 365.53 58.23 M332.28 98.92 C337.89 87.86, 348.54 83.9, 363.86 67 M332.4 99.85 C341.16 87.99, 354.86 72.83, 364.04 61.42 M335.83 102.86 C344.4 96.18, 351.52 89.28, 362.97 66.43 M335.06 101.73 C343.64 91.99, 351.04 83.86, 361.95 71.16 M338.31 104.46 C348.74 92.43, 351.09 88.4, 365.67 77.19 M339.69 102.29 C348.63 89.63, 357.45 83.67, 362.79 74.68 M350.82 100.22 C355.97 90.98, 360.89 88.88, 361.83 82.32 M347.33 100.66 C352.49 92.95, 356.68 89.27, 364.1 81.56 M354.31 102.67 C357.62 96.39, 358.9 91.1, 363.41 88.19 M351.46 100.15 C354.67 95.62, 357.89 92.2, 363.7 86.87 M356.44 99.61 C359.58 99.19, 362.71 96.97, 365.53 93.94 M357.23 101.25 C359.96 99.2, 361.03 97.58, 363.81 93.52" stroke="#e64980" stroke-width="0.5" fill="none"></path><path d="M1.17 1.69 C95.43 -2.29, 187.07 -5.13, 362.48 -1.95 M1.08 0.96 C75.69 -0.67, 148.98 -0.52, 362.47 0.7 M364.78 -2.9 C362.97 35.84, 360.23 62.22, 364.3 95.94 M361.68 0.36 C361.88 20.89, 363.53 45.82, 360.05 98 M363.54 96.4 C262.42 94.68, 166.33 96.39, 1.87 98.7 M362.31 98.96 C278.64 101.45, 193.13 100.84, 0.58 98.46 M-1.93 99.58 C1.76 75.95, 4.06 57.58, 2.68 1.31 M-0.78 97.89 C-2.41 61.39, -2.17 27.69, -0.74 -1.14" stroke="#000000" stroke-width="1" fill="none"></path></g><g stroke-linecap="round" transform="translate(13.122745522607715 266.409725613064) rotate(0 178.11177147759327 46.978547837999145)"><path d="M0 0 C0 0, 0 0, 0 0 M0 0 C0 0, 0 0, 0 0 M0.82 5.57 C-0.05 4.48, 3.72 1.88, 3.45 -0.94 M-0.43 7.02 C0.3 4.1, 2.36 3.59, 5.52 -0.36 M-1.64 14.57 C1.69 9.21, 7.61 9, 10.07 -2.14 M-0.41 12.77 C3.11 9.53, 6.26 3.75, 9.42 0.09 M1.42 16.18 C7.17 9.12, 5.5 10.67, 13 4.29 M-0.48 18.72 C1.65 14.17, 6.16 10.57, 14.77 -0.97 M0.23 23.88 C4.37 16.42, 8.29 10.58, 17.67 -0.27 M0.36 24.37 C3.34 20.04, 9.96 14.15, 21.32 -0.35 M0.73 32.38 C8.32 23.93, 14.44 7.52, 23.54 -2.43 M1.03 32.14 C7.68 21.48, 15.59 12.61, 24.39 0.1 M-3.81 40.66 C8.04 23.66, 23.04 16.19, 31.08 -1.33 M-0.21 35.7 C8.79 28.69, 17.71 17.28, 30.83 -0.19 M0.08 39.64 C7.97 31.13, 17.74 21.81, 39.53 -2.42 M0.47 44.11 C11.49 29.3, 18.8 20.07, 37.8 -0.79 M-0.64 47.18 C8.38 31.82, 24.85 22.7, 39.48 1.25 M-1.09 49.64 C15 28.72, 33.18 7.77, 42.46 -0.68 M2.29 55.55 C11.52 40.86, 23.6 30.78, 50.84 3.85 M-0.09 56.13 C10.85 44.09, 22.05 29.13, 49.03 1.38 M-3.53 62.21 C12.51 44.08, 26.52 30.02, 51.33 -2.57 M0.37 62.68 C21.48 36.99, 41.66 12.75, 54.47 -1.53 M-3.34 65.31 C25.38 39.11, 41.77 19.58, 54.49 2.77 M-1.78 67.97 C23.16 42.49, 47.88 11.97, 59.57 -0.84 M-1.96 74.65 C17.19 54.45, 31.81 27.94, 62.19 0.03 M-1.12 74.15 C22.51 46.8, 46.7 22.16, 62.57 -0.89 M1.56 82.75 C10.63 62.02, 26.33 46.32, 70.61 -0.39 M1.64 78.74 C15.15 58.05, 33.09 38.79, 70.33 0.7 M-2.3 84.27 C19.84 69.03, 31.95 48.95, 70.76 -3.23 M0.62 86.93 C14.68 68.45, 33.29 49.52, 75.89 0.65 M-3.46 90.84 C20.7 70.81, 39.28 45.72, 78.46 2.52 M-0.09 91.33 C33.53 55.77, 61.38 18.7, 77.67 1.67 M5.52 92.21 C17.54 73.88, 39.47 57.21, 86.86 -1.76 M0.5 93.95 C21.41 72.34, 43.11 50.38, 85.01 0.06 M4.14 94.35 C36.99 59.9, 69.79 24.03, 88.43 -1.48 M8.06 93.18 C27.92 73.09, 50.54 45.83, 89.37 1.34 M13.26 94.93 C33.85 70, 65.11 37.28, 99.45 -2.12 M11.43 96.16 C42.76 62.79, 69.85 31.39, 93.92 -0.12 M14.86 93.78 C49.96 62.75, 82.31 23.57, 102.02 1.51 M19.43 94.1 C49.92 60.68, 80.32 22.68, 100.67 -1.48 M26.74 95.4 C48.82 56.55, 79.77 25.54, 108.58 -3.97 M24.72 93.69 C45.08 69.68, 70.43 40.07, 108.09 0.21 M30.35 96.49 C45.49 77.25, 63.86 59.27, 111.88 -3.74 M28.78 97.46 C57.16 60.19, 88.13 26.22, 110.24 -0.4 M36.1 96.89 C60.82 63.84, 96.44 25.1, 116.82 0.67 M32.28 95.67 C64.54 59.43, 94.94 24.67, 117.74 -0.54 M36.62 94.67 C63.98 64.18, 97.66 30.81, 125.75 2.42 M37.54 94.17 C65.58 65.92, 89.19 37.03, 120.17 -1.49 M46.6 97.54 C76.93 63.78, 107.55 24.98, 123.78 0.35 M45.46 94.79 C75.63 60.24, 107.37 24.8, 128.5 -0.65 M52.82 97.66 C78.97 60.82, 111.78 28.95, 134.53 2.5 M50.65 94.96 C77.15 63.32, 110.04 28.34, 132.02 0.76 M54.62 98.37 C73.96 71.33, 99.92 42.3, 138.26 0.81 M55.06 95.32 C74.55 70.36, 97.6 47.85, 137.49 1.42 M61.91 96.93 C83.12 68.01, 104.1 44.64, 144.23 -2.1 M59.11 95.36 C86.91 61.45, 117.27 26.18, 142.76 -0.58 M63.67 95.29 C85.47 77.96, 103.83 56.55, 148.83 -2.14 M67.3 97.06 C97.21 61.36, 128.67 24.31, 147.9 0.01 M73.95 98.81 C99.58 61.3, 130.05 27.87, 151.98 0.91 M71.36 96.47 C92.37 71.83, 112.42 45.52, 152.81 -0.88 M76.39 95.06 C107.47 65.42, 129.4 37.7, 155.19 2.22 M75.85 95.39 C99.26 69.31, 125.41 41.37, 160.36 -0.95 M78.16 92.51 C110.58 61.42, 139.75 22.06, 162.03 2.65 M81.3 96.96 C102.53 75.91, 117.7 54.6, 166.02 0.05 M86.53 91.32 C110.89 68.64, 138.56 36.08, 168.16 -0.52 M85.82 97.27 C112.94 66.49, 135.57 38.4, 168.95 -0.01 M90.84 98.1 C108.36 78.34, 127.67 55.37, 177.78 -2.85 M92.25 97.04 C120.23 63.41, 148.99 31.63, 173.68 -2.04 M94.99 96.61 C119.1 67.63, 148.68 38.23, 177.69 -1.92 M97.75 97.18 C119.67 69.56, 143.21 41.28, 181.18 1.89 M99.45 94.56 C124.36 68.22, 155.14 35.33, 185.73 -2.68 M100.96 94.5 C133.26 58.83, 166.35 22.45, 186.53 0.17 M109.77 94.32 C121.58 75.69, 144.14 51.22, 192.85 -2.62 M107.61 97.21 C135.3 67.19, 163.52 36.98, 190 1.33 M110.56 91.71 C132.74 65.58, 161.18 39.24, 195.53 2.92 M113.64 96.69 C144.6 62.6, 170.15 28.15, 194.72 1.57 M122 94.71 C136.15 70.25, 156.11 48.35, 201.84 3.56 M118.83 94.98 C137.77 72.76, 161.49 48.24, 201.79 0.48 M125.86 98.26 C154.5 56.5, 191.32 21.1, 207.92 0.59 M121.93 96.52 C156.03 61.6, 184.08 22.82, 207.88 0.59 M129.95 94.94 C155.65 64.25, 176.19 38.64, 211.98 -2.27 M130.26 95.69 C155.6 63.94, 181.89 32.16, 212.38 -0.94 M134.18 97.8 C166.87 61.77, 191.64 22.66, 214.79 -4.14 M134.89 96.47 C154.16 72.16, 171.87 50.8, 219.03 -0.76 M138.35 95.79 C171.17 60.04, 195.88 28.43, 225.71 -0.17 M139.54 96.83 C166.61 65.22, 194.17 34.55, 223.02 -1.64 M143.46 96.79 C177.58 66.85, 205.73 26.76, 231.16 -2.87 M143.03 96.57 C161.58 74.02, 179.04 56.07, 228.65 -0.91 M153.01 98.63 C171.17 68.93, 197.26 39.02, 232.62 -3.29 M149.7 97.23 C168.52 73.05, 187.68 55, 232.42 1.22 M156.78 92.55 C178.58 74.3, 198.18 43.33, 238.5 0.42 M154.31 94.42 C173.87 72.55, 195.14 49.22, 240.02 2.02 M160.91 93.99 C194.21 59.12, 223.85 17.75, 241.4 -1.93 M161.26 97.51 C192.97 59.99, 227.89 22.19, 244.71 0.07 M164.34 97.3 C184.21 69.94, 206.88 52.47, 251.38 2.37 M166.11 97.18 C193.68 59.16, 225.68 24.97, 249.79 -0.79 M172.83 98.53 C197.27 59.54, 229.35 27.58, 255.86 -3.51 M170.82 97.12 C199.95 61.13, 233.95 24.39, 253.47 0.86 M175.45 98.13 C193.95 71.96, 215.84 50.1, 257.54 -3.24 M177.26 93.58 C196.45 69.47, 215.99 47.29, 260.1 -0.32 M182.63 91.76 C210.29 69.25, 235.75 36.36, 266.96 -0.56 M182.42 95.06 C205.2 68.41, 230.91 41.25, 265.7 -0.86 M186.57 96.99 C207.21 75.08, 226.4 58.11, 268.48 3.48 M188.01 93.9 C209.99 68.46, 237.91 38.88, 269.17 -0.76 M191.33 96.08 C222.13 63.59, 249.31 28.5, 276.77 -2.76 M191.55 93.9 C211.03 78.13, 226.54 56.92, 273.86 0.01 M197.26 94.71 C226.67 66.26, 245.86 43.25, 278.83 -2.71 M196.06 93.98 C230.72 62.67, 258.81 23.6, 282.69 1.26 M199.06 96.76 C228.29 60.21, 260.21 22.97, 282.49 3.11 M201.12 95.77 C221.81 75.62, 238.9 52.66, 287.82 -1.87 M210.23 99.01 C234.75 64.94, 253.92 41.47, 290.37 3.86 M208.55 95.25 C225.37 78.13, 240.26 58.45, 289.75 0.71 M213.09 97.95 C243.73 67.18, 272.12 26.34, 300.43 -2.87 M213.49 94.37 C243.81 58.56, 276.09 22.16, 298.92 1.71 M223.29 92.47 C247.96 65.42, 275.11 32.21, 303.96 3.7 M218.05 96.67 C252.83 56.63, 286.58 18.61, 302.89 0.07 M223.8 98.66 C255.51 64.4, 286.75 22.05, 310.05 -1.73 M222.44 94.94 C248.56 67.98, 274.35 36.94, 307.91 0.55 M229.4 96.54 C260.1 64.15, 280.35 30.77, 311.63 -3.79 M230.57 94.78 C251.08 70.25, 269.94 45.31, 314.09 1.42 M236.69 92.81 C264.97 62.69, 289.47 32.79, 317.92 0.34 M233.21 94.3 C251.64 75.78, 268.1 57.94, 316.99 -2 M240.62 91.57 C257.57 76.56, 274.87 54.09, 320.5 -0.34 M241.56 95.68 C271.36 61.47, 299.37 26.62, 322.77 -1.62 M248.41 93.14 C265.41 70.02, 291.57 43.47, 325.73 -3.93 M246.46 96.84 C266.53 67.54, 285.87 43.89, 329.8 -1.04 M248.15 96.76 C273.48 75.01, 289.33 52.67, 336.83 3.19 M251.91 95.03 C277.24 64.36, 302.07 31.84, 335.79 0.15 M254.72 99.33 C273.42 72.14, 297.61 45.93, 338.31 1.03 M254.3 94.5 C275.81 74.87, 296.13 49.98, 339.41 -2.08 M261.66 98.94 C297.2 61.78, 328.07 24.35, 342.02 -1.17 M259.29 94.81 C282.92 63.95, 309.57 37.58, 343.43 -0.51 M266.49 97.87 C284.55 71.92, 300.31 49.56, 346.96 -1.55 M268.27 94.78 C289.57 68.94, 312.17 40.94, 347.68 -0.35 M271.91 97.58 C299.38 58.11, 328.52 31.57, 356.57 -2.53 M272.75 96.3 C293.93 67.26, 320.08 40.69, 355.43 0.7 M277.73 94.18 C306.3 59.71, 338.79 21.39, 362.73 1.65 M279.35 96.74 C303.15 67.67, 328.2 35.34, 358.55 1.77 M278.81 93.25 C302.72 68.18, 322.37 46.45, 360.89 5.19 M280.86 96.59 C310.61 63.06, 340.93 28.77, 357.74 7.98 M289.59 96.52 C305.97 69.19, 322.22 54.81, 359.3 16.65 M289.95 95.03 C301.05 76.8, 318.43 61.21, 360.88 13.24 M294.07 92.67 C312.93 72.56, 328.44 53.45, 361.7 18.1 M294.24 97.61 C315.44 68.83, 337.81 45.22, 358.89 20.23 M302.32 92.04 C324.79 71.94, 342.81 42.59, 354.52 28.74 M297.94 95.83 C315.86 77.57, 331.92 58.39, 358.02 24.97 M300.5 93.42 C322.57 76.39, 336.55 56.45, 356.14 35.96 M304.97 94.81 C323.92 73.89, 343.56 49.73, 358.21 32.69 M307.31 94.76 C322.59 83.15, 334.35 74.39, 362.15 38.35 M308.6 96.89 C326.9 77.24, 343.8 58.61, 359.54 37.74 M316.05 91.96 C324.02 78.85, 340.92 64.65, 360.57 41.91 M314.56 97.25 C326.63 82.87, 333.59 70.95, 358.52 44.68 M319.07 97.58 C332.39 86.02, 340.55 73.29, 357.11 47.07 M318.66 95.54 C328.62 83.47, 339.24 74.35, 358.5 52.16 M321.79 99.62 C334.75 88.86, 343.7 72.53, 360.45 59.71 M325.95 95.51 C334.02 84.3, 344.65 74.68, 360.06 56.82 M327.23 96.26 C340.68 86.57, 344.98 77.17, 358.09 62.62 M332.3 96.65 C341.23 81.28, 354.74 70.34, 358.02 61.63 M333.93 94.62 C344.67 87.12, 351.36 79.12, 362.36 70.28 M335.54 93.77 C343.38 90.21, 348.34 83.3, 360.52 67.56 M344.54 97.46 C347.89 88.77, 355.07 85.81, 362.26 76.33 M341.1 96.66 C348.1 86.73, 355.93 81.21, 358.01 73.89 M347.7 94.11 C350.16 94.67, 354.94 89.9, 356.81 80.65 M345.19 93.82 C349.72 92.16, 351.94 89.73, 357.73 82.1 M351.38 94.94 C354.8 92.48, 356.43 91.98, 357.15 85.9 M351.99 95.39 C353.62 91.45, 356.91 89.06, 358.12 87.8" stroke="#12b886" stroke-width="0.5" fill="none"></path><path d="M-1.71 -1.94 C133.16 -1.97, 260.73 -0.25, 358.56 1.07 M0.72 0.82 C71.31 1.96, 145.18 2.35, 355.52 0.93 M355.12 2.9 C356.33 31.28, 357.45 61.94, 354.55 94.3 M356.16 0.24 C359.03 30.72, 355.8 63.66, 356.24 93.02 M358.09 95.05 C223.23 91.98, 93.36 94.3, 0.28 91.53 M356.93 94.4 C274.95 94.79, 195.11 95.94, -0.55 93.86 M-0.36 92.59 C-3.82 68.91, 1.17 41.18, 1.97 -2.16 M1.58 93.1 C-0.86 60.67, 0.71 28.57, 1.54 0.43" stroke="#000000" stroke-width="1" fill="none"></path></g><g transform="translate(129.25377783055035 32.80466715494765) rotate(0 62.5 22.5)"><text x="62.5" y="32" font-family="Virgil, Segoe UI Emoji" font-size="36px" fill="#000000" text-anchor="middle" style="white-space: pre;" direction="ltr">Layer 1</text></g><g transform="translate(120.73451700020098 290.8882734510631) rotate(0 70.5 22.5)"><text x="70.5" y="32" font-family="Virgil, Segoe UI Emoji" font-size="36px" fill="#000000" text-anchor="middle" style="white-space: pre;" direction="ltr">Layer 2</text></g><g stroke-linecap="round"><g transform="translate(199.88002143787025 180.74477443210492) rotate(0 -0.3841432671745224 37.042814904716295)"><path d="M-1.63 -2.14 C-1.5 10.23, -1.55 64.05, -1.35 76.23 M2.68 2.86 C2.65 14.33, -2.74 60.99, -3.45 72.61" stroke="#000000" stroke-width="1" fill="none"></path></g><g transform="translate(199.88002143787025 180.74477443210492) rotate(0 -0.3841432671745224 37.042814904716295)"><path d="M-14.19 43.97 C-5.33 51.87, -11.16 60.01, -5.21 74.86 M-10.07 44.14 C-9.86 55.62, -5.54 65.53, -4.19 72.05" stroke="#000000" stroke-width="1" fill="none"></path></g><g transform="translate(199.88002143787025 180.74477443210492) rotate(0 -0.3841432671745224 37.042814904716295)"><path d="M6.25 45.82 C10.49 53.07, 0.09 60.79, -5.21 74.86 M10.37 46 C3.17 56.78, 0.05 66.03, -4.19 72.05" stroke="#000000" stroke-width="1" fill="none"></path></g></g><g stroke-linecap="round"><g transform="translate(198.56818414545728 182.4365733257157) rotate(0 -0.20680580096740186 -33.47210048042234)"><path d="M0.25 2.56 C0.96 -8.67, 2.05 -57.74, 2.64 -69.5 M-3.06 1.48 C-2.46 -9.32, -0.01 -56.18, 1.04 -67.35" stroke="#000000" stroke-width="1" fill="none"></path></g><g transform="translate(198.56818414545728 182.4365733257157) rotate(0 -0.20680580096740186 -33.47210048042234)"><path d="M12.98 -36.85 C3.87 -42.17, 4 -50.2, 3.59 -70.28 M8.22 -37.06 C6.98 -46.2, 3.36 -56.13, 2.49 -67.69" stroke="#000000" stroke-width="1" fill="none"></path></g><g transform="translate(198.56818414545728 182.4365733257157) rotate(0 -0.20680580096740186 -33.47210048042234)"><path d="M-7.5 -38.27 C-11.67 -43.29, -6.59 -50.97, 3.59 -70.28 M-12.25 -38.49 C-7.4 -47.31, -4.95 -56.82, 2.49 -67.69" stroke="#000000" stroke-width="1" fill="none"></path></g></g><g stroke-linecap="round"><g transform="translate(11.764784503728151 181.54801529172937) rotate(0 182.6394661612312 -0.17746549638030729)"><path d="M1.17 -2.72 C62.28 -3.35, 306.08 -1.98, 366.92 -1.23 M-1.64 1.97 C59.29 2.92, 304.79 2.52, 365.94 1.73" stroke="#000000" stroke-width="1" fill="none"></path></g></g><g stroke-linecap="round" transform="translate(13.285811115055594 537.108476426866) rotate(0 178.11177147759332 46.978547837999145)"><path d="M0 0 C0 0, 0 0, 0 0 M0 0 C0 0, 0 0, 0 0 M-1.57 7.19 C0.35 2.77, 3.71 2.31, 6.36 1.58 M-0.22 7.18 C2.23 4.28, 3.39 1.92, 5.69 -0.22 M-1.67 14.49 C1.62 5.23, 9.5 2.49, 11.32 0.54 M0.93 11.09 C2.68 8.1, 6.44 3.89, 12.09 -1.47 M2.37 21.4 C3.83 11.19, 9.22 11.92, 18.99 1.23 M-1.17 19.36 C5.48 10.35, 9.77 5.85, 14.65 0.78 M3.49 26.77 C7.84 19.04, 16.29 12.63, 19.71 -1.62 M-0.15 23.35 C5.23 16.19, 10.99 12.26, 19.82 1.12 M3.12 30.87 C8.35 25.17, 16.62 20.32, 24.03 0.44 M0.68 30.06 C8.34 19.25, 20.25 8.64, 27.4 1.93 M3.28 37.08 C8.96 27.91, 13.73 21.24, 32.4 1.38 M0.39 36.8 C8.05 26.97, 17.12 16.47, 31.4 1.89 M-0.54 39.42 C8.36 32.76, 21.42 22.06, 33.35 3.62 M-1.01 42.88 C9.88 29.75, 22.42 18.28, 35.56 -0.68 M-2.12 49.62 C12.14 37.73, 18.04 20.9, 43.96 -3.27 M-0.12 49.44 C13.22 35.7, 23.49 21.49, 42.96 -0.27 M-0.71 52.57 C16.58 35.71, 32.54 17.33, 43.9 -3.76 M-1.21 55.83 C14.71 34.16, 29.89 19.19, 47.15 -0.5 M-2.93 61.1 C12.76 47.58, 29.77 24.92, 55.89 -1.68 M-1.08 59.29 C15.91 45.07, 31.8 26.26, 53.75 1.46 M0.96 63.46 C16.66 49.7, 23.95 36.8, 55.75 2.62 M-0.09 67.23 C22.74 41.21, 44.64 13.09, 59.61 -1.44 M-1.57 74.35 C24.37 48.33, 45.44 19.67, 60.84 -1.08 M0.23 73.2 C16.5 54.71, 32.84 34.55, 62.43 1.45 M-4.09 81.87 C18.87 60.24, 32.82 47.49, 72.1 -2.03 M-0.42 80.71 C17.65 56.87, 37.5 31.13, 67.84 -1.84 M2.66 83.07 C21.6 58.82, 44.14 32.28, 74.55 2.17 M-0.08 83.6 C25.65 53.95, 51.81 26.76, 75.1 1.66 M-3.25 90.69 C29.53 55.06, 62.46 26.05, 83.28 -3.62 M0.5 89.71 C14.72 71.46, 32.15 52.13, 80.16 1.53 M-1.11 94.36 C28.32 60.98, 57.88 29.6, 87.92 -1.4 M0.89 94.94 C21 72.59, 38.94 49.31, 85.31 -0.42 M7.08 98.65 C20.13 73.16, 37.76 59.13, 90.72 2.8 M8.68 94.17 C34.72 59.6, 63.47 28.94, 90.32 1.46 M9.95 98.6 C27.44 79.17, 48.7 55.03, 98.96 -2.39 M14.02 93.69 C30.28 73.49, 46.93 56.16, 94.03 0.28 M18.47 98.16 C44.35 67.02, 65.51 41.96, 99 -2.92 M18.41 94.46 C37.28 67.84, 57.94 44.99, 101.52 0.29 M20.71 96.7 C43.64 70.15, 68.32 44.49, 104.79 3.45 M22.57 95.54 C57.97 59.82, 88.11 23.14, 105.69 0.4 M29.63 92.53 C51.2 70.63, 77.19 41.18, 107.83 -2.09 M27.42 94.47 C49.08 70.32, 70.45 48.41, 110.41 1.93 M36.38 93.87 C55.12 72.85, 70.72 51.78, 117.03 0.05 M32.44 95.13 C62.86 63.45, 92.24 30.68, 115.48 0.88 M35.61 97.9 C69.23 63.72, 93.03 30.31, 120.02 -1.11 M38.12 95.64 C62.44 69.59, 83.44 47.28, 123.05 -0.14 M41.28 94.19 C79.69 59.97, 109.48 21.19, 124.37 3.9 M42.93 96.69 C76.52 58.48, 109.07 21.7, 128.01 -0.04 M52.66 95.53 C67.98 73.1, 83.57 56.68, 133.51 0.47 M50.41 97.23 C82.55 59.79, 113.49 25.67, 130.95 1.11 M54.85 92.62 C85.98 54.95, 124.49 20.18, 136.67 -3.33 M54.82 94.01 C74.84 72.13, 98.64 44.87, 137.34 1.72 M56.78 92.84 C91.37 62.62, 121.54 20.45, 141.39 1.99 M60.26 97.3 C84.32 67.87, 105.58 43.1, 143.07 -1.72 M67.67 98.99 C89.48 66.68, 113.42 46.08, 147.55 2.11 M66.3 94.43 C98.03 60.17, 127.58 22.61, 149.65 1.04 M71.1 92.08 C90.32 78.29, 104.63 56.11, 155.84 1.65 M71.09 97.49 C103.21 60.46, 132.09 26.21, 153.78 1.54 M73.44 98.02 C99.22 70.07, 117.7 49.91, 157.78 -1.12 M77.01 94.87 C97.83 69.95, 119.9 42.61, 158.54 0.35 M77.89 98.41 C107.65 64.21, 132.44 38.3, 168.2 -3.47 M81.76 94.99 C106.29 65.23, 134.51 35.4, 162.92 -1.4 M84.97 97.28 C109.11 73.35, 124.78 49.65, 167.24 0.51 M88.02 93.81 C114.75 61.94, 142.95 32.15, 169.05 1.67 M90.53 95.84 C122.33 64.11, 143.37 34.27, 172.9 -1.39 M90.55 94.55 C120.83 65.35, 144.73 37.22, 175.74 -1.24 M94.22 95.24 C117.91 74.49, 144.61 43.76, 182.95 -0.63 M97.84 95.26 C113.82 75.11, 134.92 51.67, 181.66 -1.43 M105.53 95.28 C117.77 67.69, 138.92 51.18, 183.52 2.71 M103.2 96.49 C131.7 64.88, 159.72 30.33, 186.94 0.86 M104.26 97.22 C126.14 79.11, 142.63 52.99, 187.04 -1.24 M106.42 96.85 C131.67 65.93, 155.66 40.63, 192.29 0.16 M110.53 94.5 C141 65.25, 162.86 42.72, 192.76 2.54 M112.87 96.69 C141.66 62.19, 174.53 27.83, 196.66 1.31 M121.28 91.45 C148.26 65.8, 180.9 31.69, 200.76 -3.2 M119.14 93.71 C146.17 63.73, 177.12 30.97, 200.3 -0.85 M124.28 94.13 C153.82 59.9, 190.39 18.85, 204.44 -1.31 M124.17 94.59 C148.03 66.72, 170.96 37.95, 206.46 -1.91 M130.61 97 C158.51 56.61, 185.37 25.44, 212.51 2.54 M130.83 94.59 C153.43 63.04, 177.97 34.4, 212.47 -0.22 M132.67 97.71 C160.84 68.37, 176.84 43.41, 217.5 -1.39 M133.13 97.21 C154.71 69.08, 178.21 43.05, 219.37 -1.28 M136.03 92.58 C160.94 69.72, 186.71 44.33, 225.78 3.85 M141.1 94.52 C168.29 62.98, 196.77 30.5, 223.03 1.89 M144.71 95.63 C167.27 74.17, 177.45 57.83, 226.03 0.63 M143.25 95.09 C179.69 59.56, 211.76 21.25, 227.82 0.32 M146.44 93.53 C174.78 71.69, 200.48 43.13, 235.23 -0.48 M148.95 95.84 C180.04 61.77, 205.29 31.39, 233.66 0.84 M152.54 97.15 C177.41 65.99, 207.71 41.18, 234.55 2.73 M157.43 94.38 C181.94 64.73, 210.71 33.65, 237.05 2.3 M163.87 92.3 C190.58 55.4, 223.22 19.94, 242.6 -0.82 M160.86 96.71 C192.07 58.51, 223.12 24.72, 245.46 -0.43 M163.4 98.44 C197.89 64.66, 222.64 31.53, 252.71 -0.52 M166.03 96.77 C193.03 65.94, 217.57 37.94, 247.7 -0.63 M170.15 95.48 C199.66 66.09, 229.03 35.4, 256.79 -0.63 M169.41 96.12 C197.22 64.53, 222.28 35.46, 254.96 0.61 M175.7 98.5 C211.46 54.95, 243.5 17.4, 259.3 2.58 M174.84 95.51 C209.35 56.91, 242.47 20.29, 259.86 2.07 M182.22 92.53 C200.53 76.41, 218.18 53.86, 261.79 -0.53 M180.61 94.59 C199.32 71.77, 218.95 48.55, 266.15 -2 M186.94 99.24 C219.48 63.62, 255.66 21.36, 268.88 -2.12 M189.1 95.42 C217.11 60.99, 249.28 27.31, 271.75 1.75 M196.16 95.78 C224.74 58.84, 258.3 27.07, 272.75 1.77 M193.9 94.22 C216.99 63.96, 244.64 35.19, 274.44 1.38 M201.75 97.43 C227.45 63.33, 250.66 33.02, 283.16 2.08 M197.46 96.88 C217.49 78.96, 233.56 56.06, 278.98 -0.68 M203.15 92.44 C219.05 71.6, 243.22 51.88, 287.93 3.4 M202.17 94.68 C233.87 56.24, 267.02 22.9, 286.69 -0.05 M207.89 92.71 C231.69 62.54, 260.73 34.98, 290.95 -1.23 M208.04 95.83 C230.82 67.88, 255.28 37.98, 290.64 1.26 M213.54 92.59 C230.58 76.77, 252.12 55.84, 296.71 -3.62 M211.75 97.19 C244.41 56.9, 277.1 22.8, 297.2 -1.55 M216.25 95.6 C240.16 76.55, 251.16 56.85, 300.22 2.4 M220.37 95.78 C249.68 62.16, 281.27 26.94, 301.23 -0.4 M224.75 97.2 C253.98 59.79, 288.03 26.91, 311.59 -0.38 M222.39 96.53 C249.04 65.29, 276.39 35.62, 307.68 1.21 M228.84 95.51 C260.12 60.2, 285.04 29.94, 314.01 2.31 M229.43 95.79 C258.04 64.23, 286.46 33.92, 310.71 -0.07 M237.37 98.09 C260.27 66.84, 282.68 42.8, 320.23 2.89 M235.3 97.05 C259.03 71.24, 277.71 47.08, 319.32 0.11 M238.78 92.69 C265.63 61.25, 296.58 32.67, 322.55 2.72 M241.65 94.5 C266.11 67.86, 292.71 38.3, 324.46 1.43 M247.09 93.99 C264.18 68.42, 287.83 51.61, 325.36 -1.18 M245.11 96.68 C280.28 58.98, 309.07 23.8, 328.7 -1.42 M254.36 98.31 C282.4 56.49, 314.66 23.65, 335.14 -1.31 M250.88 94.09 C278.5 61.14, 308.56 29.88, 333.31 0.82 M252.73 98.46 C272.46 77.79, 291.58 49.16, 336.89 -1.05 M255.88 94.86 C283.02 64.73, 309.29 36.41, 339.88 -0.37 M258.28 95.13 C282.78 67.9, 307.87 41.65, 348.23 0.2 M261.74 97.08 C288.76 64, 315.26 33.11, 345.5 0.37 M264.25 91.97 C293.01 58.32, 325.27 25.24, 347.16 2.42 M265.14 96.66 C297.71 58.55, 331.7 22.69, 347.68 -1.41 M274.37 98.55 C304.83 57.53, 336.97 17.24, 353.4 0.07 M272.29 95.27 C290.88 71.6, 310.62 49.54, 354.75 -0.05 M278.71 93.86 C298.71 72.18, 314.03 56.88, 356.31 2.51 M275.84 96.65 C307.79 60.16, 337.35 25.78, 359.01 1.59 M283.62 97.08 C300.39 75.98, 326.81 52.54, 362.12 6.32 M282.03 94.3 C309.41 65.82, 334.1 38.34, 356.97 9.25 M288.31 98.32 C314.38 72.81, 331.61 46.62, 355.07 13.17 M288.35 95.02 C316.14 64.57, 340.69 31.2, 359.7 12.12 M290.78 97.38 C313.85 68.48, 340.68 47.28, 360.17 21 M294.58 94.61 C318.5 65.41, 344.26 38.93, 356.68 18.74 M296.37 98.46 C308.57 81.87, 331.01 62.72, 358.35 23.62 M300.5 93.46 C319.67 70.5, 337.62 49.1, 360.07 25.63 M299.73 92.97 C321.12 73.46, 343.46 49.03, 359.75 29.8 M304.96 96.21 C322.68 72.57, 341.6 52.01, 359.15 33.16 M309.34 94.22 C330.6 73.37, 346.02 54.03, 356.98 42.23 M307.55 95.29 C325.09 81.42, 334.94 64.9, 358.67 37.44 M313.49 96.23 C322.27 77.99, 334.53 64.31, 356.3 45.8 M315.67 94.66 C334.14 76.5, 348.62 53.68, 359.19 43.38 M320.8 92.44 C329.94 84.78, 345.73 68.99, 354.92 50.55 M318.2 93.33 C328.84 84.13, 340.2 68.08, 359.5 52.66 M326.19 98.46 C334.6 85.98, 337.75 76.74, 358.31 54.71 M324.61 97.09 C332.92 87.54, 342.09 77.66, 358.99 55.55 M327.43 98.83 C337.48 84.3, 345.32 76.05, 355.96 64.2 M330.58 94.01 C335.98 89.64, 342.18 81.78, 358.67 63.26 M339.09 93.78 C346.32 85.98, 350.1 76.63, 359.45 67.37 M337.14 94.2 C341.02 87.34, 351.62 77.82, 360.22 67.64 M345.07 93.97 C346.99 91.17, 353.34 83.39, 354.3 78.48 M340.28 93.3 C345.46 88.84, 350.87 87.1, 359.06 77.48 M344.66 95.24 C352.28 88.12, 353.66 90.63, 357.26 84.55 M346.07 96.2 C350.65 92.87, 349.7 87.96, 358.65 82.38 M352.26 96.25 C354.25 90.91, 357.33 91.56, 359.85 88.45 M352.07 95.96 C353.83 92.08, 357.57 89.4, 357.69 88.26" stroke="#be4bdb" stroke-width="0.5" fill="none"></path><path d="M2.5 2.46 C90.13 -3.03, 181.28 -4.15, 354.97 -2.32 M-0.38 0.58 C113.02 -0.98, 228.22 -1.1, 355.23 0.65 M358.49 1.06 C355.12 18.39, 353.11 44.15, 359.48 97.48 M357.91 -0.92 C356.78 36.85, 354.33 70.83, 354.88 94.44 M354.68 96.22 C240.72 90.91, 119.18 92.35, -1.77 93.65 M355.67 93.6 C263.93 94.67, 171.37 94.92, -0.66 92.98 M0.15 91.59 C0.23 70.35, -0.68 41.57, -0.75 2.86 M1.92 93.73 C-0.37 66.68, 0.37 37.18, 0.21 0.51" stroke="#000000" stroke-width="1" fill="none"></path></g><g transform="translate(121.0714514077531 561.4239586724173) rotate(0 70 22.5)"><text x="70" y="32" font-family="Virgil, Segoe UI Emoji" font-size="36px" fill="#000000" text-anchor="middle" style="white-space: pre;" direction="ltr">Layer 3</text></g><g stroke-linecap="round"><g transform="translate(199.88002143787025 451.28045965345916) rotate(0 -0.9338141762269174 37.634147630052325)"><path d="M2.07 1.07 C1.36 13.99, -2.9 63.89, -3.94 76.08 M-0.24 -0.82 C-0.15 11.47, 0.9 59.23, 1.14 72.3" stroke="#000000" stroke-width="1" fill="none"></path></g><g transform="translate(199.88002143787025 451.28045965345916) rotate(0 -0.9338141762269174 37.634147630052325)"><path d="M-8.15 40.85 C-3.36 49.09, -2.57 58.05, 4.74 73.7 M-8.8 45.62 C-6.97 51.96, -2.55 62.97, 2.95 71.39" stroke="#000000" stroke-width="1" fill="none"></path></g><g transform="translate(199.88002143787025 451.28045965345916) rotate(0 -0.9338141762269174 37.634147630052325)"><path d="M12.36 40.43 C10.73 49.11, 5.09 58.2, 4.74 73.7 M11.72 45.2 C7.32 51.89, 5.5 63.02, 2.95 71.39" stroke="#000000" stroke-width="1" fill="none"></path></g></g><g stroke-linecap="round"><g transform="translate(198.56818414545728 452.9722585470698) rotate(0 1.8408238395604712 -33.261433384343945)"><path d="M-0.65 -1.88 C0.2 -12.42, 3.35 -54.74, 3.35 -65.48 M4.2 3.26 C5 -7.91, 1.99 -58.75, 2.14 -69.79" stroke="#000000" stroke-width="1" fill="none"></path></g><g transform="translate(198.56818414545728 452.9722585470698) rotate(0 1.8408238395604712 -33.261433384343945)"><path d="M10.51 -39.22 C12.87 -51.59, 9.03 -55.74, 1.12 -71.14 M14.08 -42.36 C9.25 -50.07, 5.57 -58.95, 1.88 -69.67" stroke="#000000" stroke-width="1" fill="none"></path></g><g transform="translate(198.56818414545728 452.9722585470698) rotate(0 1.8408238395604712 -33.261433384343945)"><path d="M-10 -38.63 C-2.74 -51.04, -1.7 -55.34, 1.12 -71.14 M-6.43 -41.77 C-5.63 -49.37, -3.67 -58.41, 1.88 -69.67" stroke="#000000" stroke-width="1" fill="none"></path></g></g><g stroke-linecap="round"><g transform="translate(11.764784503728151 452.0837005130833) rotate(0 181.33202324236436 -0.29195931360129634)"><path d="M-1.76 -0.71 C58.85 -0.43, 303.19 -0.66, 364.43 -0.42 M2.47 -3.57 C62.63 -2.66, 301.76 1.68, 362.09 2.98" stroke="#000000" stroke-width="1" fill="none"></path></g></g></svg>