<svg version="1.1" xmlns="http://www.w3.org/2000/svg" viewBox="0 0 615.534781561958 390.5289543999568" width="1846.604344685874" height="1171.5868631998703">
  <!-- svg-source:excalidraw -->
  
  <defs>
    <style>
      @font-face {
        font-family: "Virgil";
        src: url("https://excalidraw.com/Virgil.woff2");
      }
      @font-face {
        font-family: "Cascadia";
        src: url("https://excalidraw.com/Cascadia.woff2");
      }
    </style>
  </defs>
  <rect x="0" y="0" width="615.534781561958" height="390.5289543999568" fill="#ffffff"></rect><g stroke-linecap="round" transform="translate(10.799445258246806 71.8438212076826) rotate(0 297.3676681518556 154.3425665961371)"><path d="M0 0 C0 0, 0 0, 0 0 M0 0 C0 0, 0 0, 0 0 M0.66 7.7 C-0.15 5.06, 2.57 4.39, 5.07 1.31 M-0.16 6.7 C0.82 4.4, 2.66 3.29, 4.96 0.31 M-0.66 15.23 C1.73 9.8, 8.7 5.08, 8.15 -1.01 M-1.28 13.39 C3.21 6.84, 6.6 2.51, 10.92 -0.53 M-2.77 16.56 C0.98 14.61, 9.26 8.96, 16.32 1.77 M0.59 16.87 C5.32 13.69, 11.49 6.11, 16.13 2.18 M1.15 23.81 C10.01 12.7, 13.98 6.28, 19.27 -1.65 M-1.54 22.09 C7.81 15.52, 15.51 7.13, 22.53 -1.57 M-0.71 29.03 C5.35 26.41, 12.03 14.39, 26.38 -1.02 M1.38 29.73 C10.1 17.63, 18.79 5.73, 24.57 0 M0.94 40.13 C7.79 22.77, 19.79 12.42, 28 3.34 M-1.45 38.09 C9.06 28.45, 15.05 21.18, 31.77 -0.61 M3.09 39.26 C15.92 27.52, 25.68 11.59, 38.22 1.6 M-1.33 42.08 C11.96 30.76, 22.67 14.97, 37.08 0.06 M-2.83 52.24 C12.78 28.75, 29.04 8.55, 44.99 3.56 M1.54 47.83 C8.32 39.59, 18.98 26.95, 43.83 -1.2 M-1.58 50.58 C18.83 38.35, 38.1 17.34, 45.54 0.03 M0.34 55.77 C16.61 36.76, 32.31 18.79, 46.07 0.14 M1.39 64.76 C16 44.38, 29.47 25.72, 52.4 -0.05 M1.95 59.09 C10.94 45.95, 26.49 29.08, 51.42 -1.33 M1.27 70.19 C19.66 48.77, 34.35 23.33, 56.93 -0.23 M1.19 66.8 C11.35 54.74, 25.12 36.76, 57.5 1.47 M0.68 72.71 C13.68 55.52, 36.06 34.28, 67.25 -3.42 M0.49 74.36 C17.47 54.75, 33.33 37.83, 62.78 -1.56 M0.46 82.15 C15.27 57.25, 32.58 35.14, 71.83 -2.54 M1.53 78.36 C22.11 52.12, 48.5 25.49, 66.92 0.72 M-3 86.23 C16.17 63.08, 28.78 48.02, 77.43 0.65 M-0.55 83.56 C19.01 63.88, 40.67 41.84, 73.72 -0.99 M1.75 91.91 C16.21 70.53, 32.09 51.82, 80.6 -3.15 M-0.74 93.34 C26.11 62.24, 47.44 35.83, 79.43 2 M-1.46 99.33 C24.47 69.17, 46.83 41.61, 81.71 -1.53 M-1.98 96.79 C27.88 62.66, 58.12 29.85, 83.65 -1.3 M-1.61 107.31 C18.11 77.77, 43.36 59.88, 88.43 0.84 M0.53 103.32 C32.29 68.37, 59.63 33.13, 89.69 0.85 M-1.7 110.88 C27.03 80.64, 56.39 43.75, 97.74 3.5 M-1.06 109.33 C31.18 72.58, 63.89 35.95, 95.48 1.27 M2.54 115.28 C26.82 87.52, 49.4 56.32, 99.41 3.44 M-0.99 117.3 C38.89 71.43, 76.15 27.54, 101.91 0.25 M2.22 121.16 C31.33 78.44, 69.87 41.49, 106.04 0.31 M0.5 122.18 C25.83 92.55, 47.37 68.57, 107.73 -0.09 M-3.43 130.64 C33.83 90.81, 61.15 57.39, 108.51 -2.23 M-0.68 126.5 C23.04 96.72, 52.23 66.9, 109.9 -1.39 M-0.24 136.79 C46.42 88.06, 85.32 29.22, 113.35 1.36 M-0.74 135 C43.84 83.64, 89.89 35.02, 117.81 2.02 M-0.33 137.1 C23.98 109.29, 48.28 82.79, 125.54 0.09 M-0.42 141.28 C25.7 110.65, 49.57 82.18, 120.99 1.78 M3.25 147.53 C39.4 101.05, 82.02 49.01, 123.26 3.94 M1.3 146.88 C43.9 96.88, 84.29 49.2, 128.67 2.15 M-0.02 155.38 C31.19 110.86, 66.35 72.5, 134.96 1.61 M-0.43 151.79 C28.97 118.49, 58.09 84.82, 132.14 -0.84 M-0.69 159 C40.59 117.13, 78.65 68.47, 139.94 2.49 M1.42 157.33 C27.24 125.38, 54.95 93.18, 136.91 -1.21 M-2.48 162.28 C31 128.21, 62.46 88.53, 144.9 1.21 M-0.79 164.57 C49.12 110.26, 95.37 59.84, 141.88 -0.71 M-0.75 173.35 C42.7 118.66, 84.1 71.49, 148.33 2.55 M-1.03 170.32 C44.87 120.57, 87.18 71.7, 147.22 1.98 M1.42 174.71 C41.54 123.64, 81.41 75.13, 153.79 -2.94 M1.51 176.14 C56.74 110.76, 117.16 43.38, 153.81 -1.42 M2.69 180.22 C57.46 116.43, 121.78 46.25, 158.51 -2.78 M-0.88 184.1 C37.58 140.6, 71.9 101.44, 159.52 1.34 M1.79 191.04 C60.15 112.34, 128.47 35.99, 166.07 -0.07 M-1.72 188.71 C62.03 120.26, 124.79 47.09, 165.76 0.04 M2.75 194.96 C34.52 154.58, 66.85 111.91, 168.55 2.53 M-1.27 196.04 C40.44 146.44, 78.03 102.35, 170.31 -1.3 M0.42 203.79 C48.39 143.18, 93.81 90.34, 172.12 -0.41 M-0.32 200.02 C58.57 131.43, 118.42 60.98, 173.9 -0.45 M-1.28 205.48 C63.87 129.4, 124.48 58.29, 178.95 -2.38 M-0.68 206.56 C57.83 141.52, 117.02 74.86, 179.31 -0.12 M-0.72 210.89 C60.16 148.51, 115.23 87.99, 187.1 -1.35 M0.25 214.3 C40.65 171.88, 78.7 129.8, 185.27 -0.81 M0.56 219.33 C41.06 175.47, 81.19 129.71, 192.33 2.68 M-0.26 219.36 C54.07 160.97, 105.88 99.4, 191.95 -0.95 M2.78 224.01 C56.51 160.12, 115.02 95.02, 193.91 -1.26 M1.35 226.8 C61.45 153.61, 122.94 82.67, 195.33 0.37 M0.57 234.47 C60.02 154.41, 123.41 83.89, 201.42 2.73 M-0.89 232.15 C46.96 182.08, 87.63 131.86, 201.03 0.84 M-0.26 238.41 C74.23 151.29, 146.41 62.92, 205.32 0.64 M1.02 237.27 C71.04 151.88, 144.59 68.16, 206.96 1.04 M0.67 245 C46.03 192, 91.75 137.03, 213.13 -1.84 M-1.23 244.66 C53.92 177.32, 109.65 114.73, 211.21 -0.9 M-1.77 252.88 C72.38 170.52, 140.55 89.2, 215.2 -1.03 M-0.64 249.97 C52.25 191.88, 101.32 134.76, 218.2 -0.94 M2.34 255.36 C53.61 196.43, 100.59 137.49, 224.6 2.17 M1.47 255.59 C69.8 176.09, 137.73 96.72, 223.48 0.25 M-1.56 261.03 C61.3 190.79, 119.07 125.24, 228.03 -0.96 M0.67 262.09 C79.68 168.39, 159.23 74.1, 228.44 0.12 M0.94 268.79 C57.43 208.37, 107.53 144.13, 235.21 2.26 M0.25 268.65 C48.39 213.87, 97.91 155.53, 233.29 0.4 M0.56 276.55 C69.42 188.61, 146.93 103.6, 236.18 0.56 M-1 274.18 C90.84 168.57, 183.39 62.63, 237.47 -0.6 M1.07 278.39 C78.31 196.54, 147.1 112.42, 246.23 -0.37 M-0.59 279.99 C94.7 169.52, 191.53 59.26, 243.88 -0.41 M2.18 288.16 C77.62 192.07, 156.02 105.25, 248.87 0.57 M-0.72 286.93 C62.8 210.09, 129.44 135.03, 247.93 -0.03 M-1.59 294.54 C70.78 210.36, 141.08 127.96, 255.71 1.87 M0.63 293.3 C68.3 213.38, 137.17 134.27, 255.39 1.07 M-1.68 297.37 C98.33 181.48, 201.67 66.74, 257.59 -1.87 M0.76 299.42 C53.7 237.14, 107.82 174.41, 258.88 -0.81 M0.43 304.93 C55.28 239.99, 110.89 177.42, 263.66 -0.94 M-0.06 304.4 C50.91 246.32, 104.62 183.45, 265.41 -0.64 M0.32 310.86 C86.99 213.57, 173.22 113.03, 268.41 0.17 M1.02 308.75 C81.52 215.76, 164.02 119.01, 270.94 0.52 M6.98 307.82 C74.67 225.4, 146.99 139.4, 275.92 1.87 M6.26 309.91 C102.69 200.28, 193.88 95.91, 276.02 -0.75 M10.91 309.04 C112.86 192.73, 212.14 78.01, 281.59 -0.7 M12.82 309.61 C93.74 212.53, 176.28 115.25, 281.22 0.23 M16.79 311.61 C83.62 230.85, 149.13 153.35, 286.52 0.06 M17.1 310.61 C74.91 246.76, 129.15 183.64, 286.68 -0.65 M20.28 309.42 C100.39 215.8, 181.17 128.13, 292.73 1.27 M22.9 310.49 C86.12 233.4, 152.82 158.18, 292.16 1.03 M28.52 310.4 C116.98 209.67, 204 108.14, 295.63 -1.49 M27.16 310.7 C102.98 219.34, 178 133.4, 296.62 -0.85 M34.34 311.07 C112.85 214.59, 195.66 123.63, 301.12 -1.97 M32.02 309.34 C93.39 238.11, 150.36 171.3, 302.6 0.88 M37.78 308.73 C98.75 245.15, 153.69 182.3, 309.36 -0.63 M38.33 309.57 C101.42 236.74, 164.92 164.07, 307.04 -1.08 M43.01 310.39 C125.27 213.24, 207.15 114.44, 314.23 -1.32 M42.9 309.35 C154.37 186.13, 261.18 63.31, 312.25 -0.35 M49.02 309.89 C113.2 235.5, 176.06 161.65, 317.85 -2.25 M49.63 309.96 C130.91 216.32, 211.21 125.92, 318.91 -0.25 M55.36 309.91 C131.63 222.33, 209.35 132.59, 321.31 -1.41 M53.61 310.08 C116.85 239.13, 178.55 167.07, 323.89 -0.94 M57.26 307.92 C138.78 218.19, 214.02 130.62, 330.37 -0.76 M58.76 309.9 C132.56 229.01, 206.5 145.73, 328.57 -0.9 M64.47 309.44 C145.27 216.46, 225.33 125.75, 333 1.5 M64.2 309.66 C128.95 235.72, 189.9 161.83, 334.54 0.55 M70.1 309.55 C136.44 230.95, 202.41 156.57, 340.22 -2.01 M70.85 309.31 C157.26 204.76, 247.15 101.61, 338.69 -0.38 M73.79 310.55 C151.07 222.98, 223.54 138.62, 346.1 1.84 M74.45 309.25 C183.53 185.88, 288.62 64.96, 344.29 0.85 M81.34 307.86 C178.7 199.83, 274.06 89.11, 350.37 -0.63 M80.91 310 C143.23 235.37, 206.73 161.04, 348.85 1.1 M83.95 307.71 C144.48 237.78, 206.18 162.52, 356.83 -2.03 M86.12 308.56 C181.16 196.43, 279.89 84.46, 354.08 0.76 M92.96 308.61 C159.58 231.96, 227.32 153.16, 358.6 -0.54 M91.39 309.07 C172.42 216.56, 253.88 122.99, 360.38 -0.33 M97.15 310.3 C173.5 223.96, 242.46 142.76, 365.14 0.96 M96.34 310.34 C174.81 218.38, 251.46 129.82, 365.73 0.8 M101.9 308.32 C192.26 211.4, 281.99 108.09, 371.04 -1.71 M101.21 309.92 C166.6 240.74, 226.34 172.81, 370.17 1.12 M108.4 307.43 C202.07 206, 295.69 99.57, 374.81 -0.61 M106.37 309.28 C200.91 199.45, 297.24 86.1, 375.31 -1.05 M113.29 311.79 C215.13 193.19, 318.13 78.73, 382.91 1.27 M112.36 309.02 C184.11 229.21, 255.72 148.66, 382.16 0.25 M118.67 307.53 C199.69 210.92, 286.61 113.21, 388.98 -1.01 M117.25 309.69 C188.5 228.45, 260.54 148.38, 386.33 -0.49 M122.86 310.16 C220.45 195.81, 319.81 87.22, 390.99 2.31 M123.27 309.16 C191.01 234.4, 258.52 155.58, 391.22 -0.73 M129.84 308.31 C208.57 215.7, 294.66 121.03, 396.96 0.59 M126.91 310.81 C215.47 206.47, 306.77 101.55, 396.59 -0.15 M134.5 311.7 C191.73 236.62, 249.85 167.94, 402.44 1.45 M133.24 310.59 C189.14 241.74, 247.53 177.31, 402.99 1.18 M138.6 311.3 C230.63 210.14, 319.02 109.37, 409.44 0.13 M139.42 310.43 C192.88 244.27, 247.86 180.64, 409.12 -0.77 M142.68 310.96 C217.72 221.3, 293.44 137.59, 412.79 0.46 M144.62 308.86 C224.42 214.57, 307.17 119.04, 414.07 0.97 M149.97 308.87 C215.91 230.83, 285.71 155.08, 418.94 1.87 M150.04 309.38 C245.6 200.7, 343.92 87.92, 419.04 -1.19 M154.46 310.86 C214.64 239.93, 276.13 169.9, 423.58 -1.59 M154.04 310.23 C232.96 217.12, 313.38 124.82, 423.02 1.01 M158.08 311.89 C226.22 233.64, 291.95 157.29, 430.49 0.82 M158.84 310.7 C255.68 196.59, 354.16 85.6, 428.91 -0.55 M167.49 309.39 C260.15 203.27, 351.46 100.18, 433.51 0.49 M165.57 309.63 C251.19 212.76, 334.73 117.28, 434.76 0.07 M171.77 311.01 C268.46 202.12, 362.54 91.57, 439.76 0.28 M170.04 309.47 C235.46 229.05, 302.99 151.55, 439.94 -0.53 M174.39 308.48 C252.58 224.06, 328.53 138.38, 447.27 0.42 M175.35 310.48 C238.84 234.8, 302.89 160.65, 445.17 -0.09 M179.56 311.75 C258.26 219.85, 333.24 131.17, 450.57 -1.34 M181.04 310.33 C270.96 209.21, 358.51 107.59, 449.83 -0.88 M184.75 309.6 C256.08 231.33, 326.79 147.2, 457.92 -1.96 M186.97 309.3 C281.24 200.97, 376.19 94.04, 456.47 0.89 M193.44 308.19 C252.14 232.54, 320.62 156.57, 461.72 -1.69 M191.19 309.92 C295.01 198.5, 394.33 81.96, 461.51 0.5 M198.77 309.3 C279.1 214.73, 365.68 120.86, 464.52 -0.71 M198.28 308.91 C274.62 224.93, 349.43 136.94, 466.28 -0.27 M200.67 309.28 C284.66 218.18, 362.06 129.56, 470.76 1.84 M201.8 310.06 C264.66 238.96, 326.42 166.89, 471.53 -0.41 M207.2 308.07 C264.7 242.27, 319.81 180.77, 476.49 -1.34 M208 309.58 C276.54 233.22, 342.49 156.85, 476.35 0.58 M212.04 308.14 C316 187.78, 421.16 71.15, 480.96 0.34 M213.93 308.97 C274.26 236.55, 339.04 163.97, 481.47 0.77 M217.79 310.31 C306.61 205.56, 394.15 108.46, 487.25 1.11 M217.9 309.13 C281.33 240.09, 342.92 169.7, 488.18 -0.46 M222.33 308.37 C318.22 193.58, 416.02 84.02, 493.02 -0.16 M224.01 310.06 C324.96 195.77, 426.51 76.8, 491.77 -0.6 M228.87 311.16 C336.83 186.47, 440.43 65.94, 496.19 0.18 M228.42 309.42 C334.64 186.82, 439.12 68.54, 498.66 0.15 M232.33 310.9 C318.32 209.19, 401.21 112.59, 503.27 0.78 M234.84 308.74 C319.28 211.09, 406.42 110.09, 502.24 0.75 M238.16 309.65 C332.38 202.41, 423.17 93.45, 508.68 -0.13 M240.84 309.82 C304.44 233.6, 369.61 158.61, 508.82 0.09 M244.36 309.59 C311.24 234.29, 377.48 154.01, 511.84 -1.32 M244.55 309.98 C302.87 245.47, 356.52 181.18, 513.49 1 M250.87 309.51 C323.7 227.42, 397.36 139.12, 518.49 1.54 M250.06 310.16 C329.41 219.11, 408.46 128.17, 519.45 0.06 M253.58 308.82 C312.87 244.51, 372.13 177.07, 522.61 1.8 M255.45 308.58 C323.12 234.28, 385.53 160.82, 524.84 0.42 M260.4 311.68 C335.85 222.37, 408.4 138.73, 529.73 -0.54 M260.41 309.87 C322.68 241.36, 379.76 174.1, 531.1 -0.64 M265.48 310.27 C362.84 197.41, 463.85 84.08, 534.46 0.31 M265.21 308.91 C348.77 214.93, 429.73 122.27, 534.24 1.15 M270.75 310.15 C370.25 189.79, 475 69.17, 539.35 -1.59 M270.7 310.34 C336.91 231.07, 404.98 153.66, 541.9 0.23 M278.37 308.54 C362.77 216.61, 441.89 124.69, 545.66 1.52 M277.85 309.52 C370.48 199.39, 463.41 92.2, 544.9 0.64 M281.54 310.82 C347.7 232.59, 410.26 158.58, 550.23 0.48 M281.25 309.72 C337.52 240.21, 395.07 175.04, 551.9 -0.83 M287.71 308.77 C383.79 198.29, 476.07 91.49, 558.23 -0.98 M288.36 309.76 C345.27 243.51, 402.61 177.52, 556.5 0.43 M291.79 310.33 C362.4 229.28, 439.05 145.21, 562.45 0.7 M293.25 310.22 C370.3 219.64, 449.31 131.05, 563.14 0.01 M299.36 309 C372.63 229.89, 442.77 149.6, 569.21 -0.84 M298.08 309.8 C399.66 189.87, 503.72 73.83, 567.38 -0.46 M304.29 309.24 C368.72 233.11, 437.05 154.69, 573.28 0.22 M302.16 309.36 C368.31 237.63, 433.32 163.67, 573.01 -1.38 M307.56 309 C391.32 217.06, 473.35 119.03, 579.4 -1.03 M308.11 308.34 C366.55 240.94, 429.35 169.24, 576.73 1.09 M312.44 307.61 C406.79 195.94, 500.3 87.64, 580.9 -1.76 M313.08 308.74 C419.06 189.94, 522.22 70.68, 582.41 1.17 M321.33 310.26 C379.89 243.34, 434.53 174.55, 588.97 -0.57 M319.31 309.33 C428.16 187.75, 534.64 65.53, 589.01 -0.91 M322.17 309.45 C411.57 209.39, 500.08 107.9, 591.46 2.23 M325.37 309.66 C383.72 236.52, 447.81 164.53, 593.94 1.4 M329.26 311.58 C433.5 189.44, 540.85 68.16, 595.52 3.3 M330.11 308.67 C431.27 190.22, 533.98 71.26, 596.56 2.71 M334.43 309.45 C412.12 219.33, 490.05 130.38, 595.27 9.22 M334.87 308.67 C403.41 230.28, 473.52 151.22, 597.07 8.01 M339.06 309.02 C427.46 209.48, 513.56 104.97, 595.79 13.67 M340.9 309.7 C393.75 248.15, 445.86 187.03, 596.77 15.11 M345.13 310.75 C434.3 204.22, 527.36 96.37, 598.17 20.45 M344.8 308.67 C427.51 217.1, 506.6 125.7, 596.8 19.9 M351.56 309.33 C404.77 248.05, 460.61 187.41, 596.77 24.62 M351.83 309.9 C421.07 229.02, 492.12 146.61, 596.39 26 M353.76 311.43 C407.22 246.42, 460.23 188.67, 596.9 30.73 M357.42 310.22 C408.92 250.39, 457.58 190.96, 596.72 33.26 M358.79 308.09 C427.35 241.74, 488.12 168.58, 595.92 40.2 M362.14 310.47 C449.81 206.47, 539.93 102.5, 596.81 39.55 M369.34 308.67 C441.08 225.34, 510.82 146.22, 598.07 43.95 M366.01 308.4 C445.37 222.22, 523.8 133.88, 596.54 44.66 M371.22 310.31 C418.64 258.19, 466.87 201.61, 599.41 49.48 M372.76 308.74 C431.91 236.2, 492.28 167.17, 597.43 50.42 M380.07 309.37 C441.88 239.31, 499.93 168.28, 596.04 55.06 M377.26 310.57 C433.04 245.76, 488.83 181.63, 596.35 55.55 M384.41 310.02 C438.78 244.57, 491.93 179.58, 599.25 64.16 M382.23 310.6 C433.83 249.04, 484.09 191.49, 597.92 63.37 M388.19 309.76 C454.36 224.94, 526.54 144.22, 597.43 71.56 M388.84 310.89 C450.59 238.84, 512.63 167.91, 596 68.63 M395.94 307.33 C453.3 239.54, 512.7 170.32, 594.58 76.89 M392.22 308.79 C436.41 255.05, 481.53 203.26, 596.84 74.63 M401.38 310.63 C457.51 242.33, 511.08 175.13, 599.76 81.87 M399.18 310.89 C474.62 223.3, 547.26 140.97, 597.23 83.02 M405.15 310.63 C454.3 253.22, 506.57 192.18, 596.26 89.49 M404.33 310.76 C451.52 254.7, 496.68 200.48, 597.42 87.41 M409.51 312.22 C459.5 247.89, 520.68 179.48, 598.26 90.7 M410.67 308.91 C476.67 234.97, 543.52 159.15, 597.73 93.34 M413.53 307.39 C451.4 265.09, 492.56 217.45, 597.5 97.23 M413.9 310.83 C482.74 225.47, 556.24 142.36, 598.42 98.83 M418.85 307.87 C478.42 246.5, 535.25 182.31, 600.13 108.51 M421 308.88 C471.57 251.17, 523 192.28, 598.6 106.47 M425.1 311.19 C465.58 257.98, 509.83 211.8, 595.26 113.9 M424.78 310 C466.1 268.94, 501.69 222.9, 595.85 112.27 M429.21 308.69 C480.34 256.4, 526.05 201.88, 597.23 116.45 M432.07 308.36 C467.26 269.84, 501.34 231.08, 598.26 117.58 M433.63 307.18 C499.93 243.97, 558.5 175.66, 593.81 125.79 M434.45 310.6 C494.23 242.54, 552.81 175.5, 598.34 125.47 M439.41 306.56 C487.49 259.51, 530.34 206.17, 596.12 129.16 M440.61 310.81 C485.66 255.99, 529.5 204.89, 597.89 129.1 M448.08 308.34 C483.04 272.48, 519.11 231.21, 594.95 139.4 M446.45 309.7 C495.5 255.61, 547.43 198.23, 597.9 137.83 M454.03 312.22 C485.38 274.92, 514.72 240.38, 599.14 146 M451.24 309.24 C496.76 254.44, 540.79 202.39, 597.81 142.32 M460.07 311.08 C485.39 273.51, 520.31 239.72, 600.41 146.48 M457.4 308.77 C497.06 263.14, 538.61 216.56, 598.13 147.33 M462.99 308.47 C508.62 258.16, 554.66 204.19, 599.28 152.34 M463.4 309.55 C489.25 276.54, 516.14 244.99, 596.48 154.06 M470.17 306.61 C508.17 258.02, 546.89 211.63, 596.58 158.43 M466.6 310.85 C504.03 266.08, 541.9 225.02, 597.22 162.22 M475.52 312.87 C509.61 271.73, 551.92 222.47, 596.43 166.45 M473.67 311.39 C509.53 269.32, 543.93 225.12, 596.97 168.3 M480.89 311.69 C510.47 273.99, 541.72 243.7, 596.55 173.95 M476.87 309.03 C509.01 277.69, 537.4 244.46, 597.83 172.6 M487.05 310.82 C519.67 265.72, 554.66 221.27, 594.02 180.91 M481.22 311.06 C508.56 280.79, 534.94 250.88, 595.42 178.09 M491.07 307.2 C513.58 288.6, 533.61 257.53, 600.41 187.05 M486.85 309.33 C528.89 267.7, 565.36 219.51, 598.5 184.94 M489.83 312.22 C535.11 266.1, 572.72 218.2, 599.08 189.75 M493.36 310.69 C521.69 278, 550.79 243.86, 599.16 189.68 M502 308.95 C522.42 285.86, 550.08 258.77, 596.71 193.36 M498.68 311.31 C527.95 276.55, 555 244.93, 597.23 195.53 M507.56 309.45 C527.7 280.72, 550.5 248.85, 596.61 207.18 M503.49 311.08 C525.18 286.17, 549.48 256.05, 598.47 203.59 M509.8 311.91 C531.4 279.61, 559.1 253.85, 597.54 210.91 M510.04 307.98 C544.12 272.25, 576.11 237.06, 598.24 207.36 M514.82 310.02 C539.57 277.4, 572.48 246.44, 600.45 216.25 M514.58 308.46 C546.34 274.76, 576.62 241.35, 597.16 215.5 M521.51 306.14 C547.01 277.93, 577.29 245.58, 597.85 224.82 M522.19 309.8 C552.31 273.7, 582.88 239.97, 599.32 222.84 M525.07 312.58 C552.77 283.24, 574.97 260.6, 593.32 229.43 M527.18 310.5 C553.04 277.5, 580.99 249.25, 596.65 228.82 M531.01 308.83 C553.45 284.98, 577.93 255.32, 598.83 236.1 M531.95 308.65 C548.7 288.42, 565.49 269.73, 595.16 232.58 M534.65 306.87 C555.3 290.34, 570.8 270.13, 593.51 237.53 M535.38 308.3 C549.33 291.33, 565.93 274.95, 598.57 239.61 M543.09 308.32 C557.3 290.32, 570.18 274.82, 594.49 242.64 M543.69 309.84 C557.5 289.39, 576.02 269.15, 595.99 244.37 M546.76 313.79 C556.86 300.49, 566.72 285.73, 598.16 250.5 M546.84 308.4 C560.26 294.62, 571.12 280.58, 596.12 253.38 M549.39 312.05 C566.92 289.41, 581.78 275.08, 599.76 259.69 M553.37 308.15 C570.38 287.75, 588.92 270.23, 595.62 259.68 M555.5 313.34 C566.97 293.65, 576.93 285.68, 598.64 266.18 M558.79 308.78 C566.31 296.9, 579.29 284.35, 597.38 265.84 M560.43 306.59 C570.63 301.01, 580.23 286.77, 597.1 268.89 M564.47 307.77 C576.71 294.23, 588.54 278.81, 598.09 270.69 M569.81 308.66 C580.03 296.66, 589.41 285.69, 599.15 275.23 M570.01 310.85 C572.67 304.39, 580.54 293.84, 595.99 275.87 M573.6 305.63 C585.93 300.73, 588.88 291.38, 599.85 283.01 M572.08 310.33 C578.36 303.45, 583.85 299.55, 597 280.99 M581.54 310.01 C581.11 306.33, 592.61 300.78, 596.81 289.75 M576.85 311.48 C584.46 303.64, 587.31 296.64, 595.17 290.03 M581.34 309.97 C592.07 305.64, 591.89 299.09, 595.62 298.49 M582.9 310.83 C588.85 305.8, 592.87 298.53, 598.75 294.42 M589.4 310.33 C591.48 306.32, 593.71 306.73, 599.08 300.35 M589.31 310.44 C591.06 306.62, 593.27 305.68, 597.94 299.99" stroke="#e64980" stroke-width="0.5" fill="none"></path><path d="M0.74 1.07 C155.63 -2.71, 308.86 -4.51, 595.52 -1.23 M0.69 0.61 C123.48 -0.66, 245.43 -0.57, 595.51 0.44 M597.28 -2.09 C594.32 103.44, 592.34 200.09, 596.94 306.72 M595.05 0.26 C596.9 69.01, 598.09 140.93, 593.88 308.2 M596.19 307.25 C433.37 304.58, 273.74 305.66, 1.19 308.7 M595.41 308.87 C457.76 311.6, 318.94 311.22, 0.37 308.55 M-1.38 309.34 C4.26 238.96, 5.91 172.36, 1.93 0.94 M-0.56 308.13 C-4.42 196.87, -4.25 87.63, -0.53 -0.82" stroke="#000000" stroke-width="1" fill="none"></path></g><g transform="translate(10 10) rotate(0 112.5 22.5)"><text x="0" y="32" font-family="Virgil, Segoe UI Emoji" font-size="36px" fill="#000000" text-anchor="start" style="white-space: pre;" direction="ltr">Service layer</text></g><g stroke-linecap="round" transform="translate(41.46910264757014 96.53350587875218) rotate(0 266.78110758463544 37.732442220052064)"><path d="M2.77 -3.78 L531.47 -3.53 L530.03 74.85 L1.7 73.35" stroke="none" stroke-width="0" fill="#ced4da"></path><path d="M1.21 0.21 C186.53 -2.23, 371.58 -2.45, 533.23 1.38 M-0.35 -0.08 C107.49 2.52, 213.91 1.83, 533.23 0.38 M534.2 -3.18 C530.44 29, 536.09 58.32, 530.34 73.66 M535.21 -0.42 C532.91 14.28, 533.9 32.46, 533.99 75.86 M533.42 76.28 C332.66 74.51, 136.38 75.33, -0.67 76.07 M532.86 76.06 C322.07 79.84, 110.66 79.83, -0.49 74.83 M-3.51 77.73 C-1.16 55.9, 1.24 36.54, 3.8 -3.26 M0.77 77.16 C-0.43 56.51, -1.42 33.12, 0.05 1.76" stroke="#000000" stroke-width="1" fill="none"></path></g><g transform="translate(54.35909695095552 115.40593222966368) rotate(0 251 17.5)"><text x="251" y="25" font-family="Virgil, Segoe UI Emoji" font-size="28px" fill="#000000" text-anchor="middle" style="white-space: pre;" direction="ltr">Protocol support: XML, SOAP, HTTP</text></g><g stroke-linecap="round" transform="translate(41.46910264757014 186.22766888330943) rotate(0 76.16699218749994 37.732442220052064)"><path d="M1.84 0.15 L151.85 -3.34 L154.83 75.07 L3.46 74.48" stroke="none" stroke-width="0" fill="#ced4da"></path><path d="M2.8 3.73 C46.57 -0.94, 92.41 -4.8, 153.05 -3.89 M-1.48 -1.83 C57.37 2.09, 120.07 0.7, 150.51 -1.63 M150.57 0.08 C152.2 27.7, 155.49 46.74, 152.69 72.23 M151.97 -0.79 C154.26 28.19, 151.86 57.81, 152.3 75.44 M152.24 78.95 C105.34 74, 49.48 71.78, 1.8 75.06 M152.6 75.79 C97.76 72.15, 41.76 71.21, 0.52 75.09 M-3.98 76.18 C0 58.25, 0.87 35.01, 1.84 -0.37 M-0.85 74.06 C2.12 50.79, 0.77 25.48, -1.94 -0.56" stroke="#000000" stroke-width="1" fill="none"></path></g><g transform="translate(57.49719916449715 206.8904598175543) rotate(0 61.5 17.5)"><text x="61.5" y="25" font-family="Virgil, Segoe UI Emoji" font-size="28px" fill="#000000" text-anchor="middle" style="white-space: pre;" direction="ltr">Contract</text></g><g stroke-linecap="round" transform="translate(229.274481879341 186.22766888330943) rotate(0 76.16699218749994 37.732442220052064)"><path d="M2.49 -0.39 L155.79 -0.98 L148.47 77.41 L-2.91 74.25" stroke="none" stroke-width="0" fill="#ced4da"></path><path d="M-1.44 -2.67 C60.64 -4.8, 123.43 0.15, 151.52 -2.95 M1.33 0.08 C29.96 -3.87, 63.91 -0.62, 153.05 -0.88 M154.27 -1.22 C152.18 19.55, 155.06 45.54, 155.53 74.74 M151.87 0.3 C153.76 19.63, 154.36 39.21, 151.64 75.42 M149.39 72.83 C95.17 74.74, 37.02 74.25, -3.03 76 M153.05 73.52 C104.69 73.55, 55.21 73.36, -0.24 73.47 M0.44 74.24 C2 51.11, 1.7 23.56, -1.89 -1.71 M-0.71 76.56 C-2.42 57.56, 0.44 40.84, -0.24 -1.67" stroke="#000000" stroke-width="1" fill="none"></path></g><g transform="translate(245.30257839626802 206.8904598175543) rotate(0 61.5 17.5)"><text x="61.5" y="25" font-family="Virgil, Segoe UI Emoji" font-size="28px" fill="#000000" text-anchor="middle" style="white-space: pre;" direction="ltr">Contract</text></g><g stroke-linecap="round" transform="translate(418.63381618923677 185.22943890284068) rotate(0 76.1669921875 37.732442220052064)"><path d="M-3.86 1.95 L149.43 -1.22 L155.8 76.91 L-1.31 77.12" stroke="none" stroke-width="0" fill="#ced4da"></path><path d="M3.59 1.06 C34.72 0.01, 67.41 -1.03, 155.27 2.66 M0.35 1.62 C47.02 1.6, 92.63 1.81, 154.19 0.97 M155.57 -0.04 C155.67 19.62, 150.89 44.58, 151.21 74.54 M152.89 -0.09 C151.62 23.74, 154.05 49.04, 152.13 73.99 M154.94 74.56 C113.63 75.69, 81.63 77.29, -2.02 76.89 M151.53 74.89 C121.17 72.9, 90.86 74.67, 1.2 75.68 M1.54 71.54 C-2.58 53.44, -3.5 36.09, 1.72 -1.41 M0.92 75.54 C1.22 47.03, 2.71 21.74, 1.73 -0.49" stroke="#000000" stroke-width="1" fill="none"></path></g><g transform="translate(434.6619127061638 205.89222983708555) rotate(0 61.5 17.5)"><text x="61.5" y="25" font-family="Virgil, Segoe UI Emoji" font-size="28px" fill="#000000" text-anchor="middle" style="white-space: pre;" direction="ltr">Contract</text></g><g stroke-linecap="round" transform="translate(41.63226996527851 280.7012915232833) rotate(0 76.16699218749994 37.732442220052064)"><path d="M-0.52 0.47 L155.46 3.18 L150.02 72.09 L-2.59 75.95" stroke="none" stroke-width="0" fill="#ced4da"></path><path d="M2.76 -2.59 C55.68 -2.42, 104.09 -2.93, 156.17 -1.58 M0.95 1.91 C44.54 3.36, 90.85 3.56, 151.71 -0.54 M153.81 3.37 C153.27 31.02, 150.97 54.78, 152.86 77.37 M153.45 0.11 C150.61 20.66, 149.8 43.01, 153.85 77.34 M153.75 78.78 C110.47 76.74, 68.91 74.81, -3.12 75.33 M153.48 75.48 C113.79 76.94, 73.91 74.84, 0.7 75.37 M2.02 78.49 C3.38 51.74, 2.56 18.59, -0.54 -0.19 M-1.47 74.3 C0.03 51.56, 0.49 28.08, -1.34 -0.94" stroke="#000000" stroke-width="1" fill="none"></path></g><g transform="translate(71.66036648220552 301.3640824575282) rotate(0 47.5 17.5)"><text x="47.5" y="25" font-family="Virgil, Segoe UI Emoji" font-size="28px" fill="#000000" text-anchor="middle" style="white-space: pre;" direction="ltr">Service</text></g><g stroke-linecap="round" transform="translate(229.274481879341 280.7012915232833) rotate(0 76.16699218749994 37.732442220052064)"><path d="M2.91 -2.68 L148.89 -2.53 L154.96 72.29 L1.97 75.25" stroke="none" stroke-width="0" fill="#ced4da"></path><path d="M-2.54 -3.06 C48.32 -1.71, 94.86 4.14, 156.18 0.81 M-1.39 0.83 C41.58 -1.87, 81.73 -2.04, 154.11 1.96 M155.19 1.38 C151.33 25.99, 150.94 47.55, 152.18 78.11 M153.87 1.07 C153.73 29.77, 150.11 57.89, 151.59 75.54 M151.01 72.41 C113.14 70.52, 67.4 73.22, 1.6 76.76 M153 77.36 C97.41 73.33, 41.87 74.56, -1.95 74.61 M-0.85 78.1 C-0.59 45.05, -1.58 21.91, 2.6 1.63 M-1.38 76.77 C0.02 48.45, 1.39 22.54, 0.31 -1.97" stroke="#000000" stroke-width="1" fill="none"></path></g><g transform="translate(259.302578396268 301.3640824575282) rotate(0 47.5 17.5)"><text x="47.5" y="25" font-family="Virgil, Segoe UI Emoji" font-size="28px" fill="#000000" text-anchor="middle" style="white-space: pre;" direction="ltr">Service</text></g><g stroke-linecap="round" transform="translate(418.63381618923677 279.86612713526245) rotate(0 76.1669921875 37.732442220052064)"><path d="M1.79 3.94 L149.04 0.03 L151.29 77.93 L3.32 77.7" stroke="none" stroke-width="0" fill="#ced4da"></path><path d="M-1.99 3.95 C34.09 -0.23, 73.96 4.29, 153.87 2.08 M-1.18 -0.79 C47.29 1.51, 91.29 1.78, 151.93 0.25 M150.54 -3.57 C149.78 24.07, 156.17 55.02, 154.96 76.45 M152.32 -1.07 C151.68 16.31, 152.96 29.25, 152.03 74.7 M150.73 78.08 C92.15 71.57, 37.41 78.12, -0.57 75.62 M154.26 75.35 C111.73 77.02, 74.07 74.74, -1.34 77.22 M-1.65 71.76 C2.76 49, -0.4 28.5, -1.42 3.4 M-1.02 74.68 C-1.2 57.65, -3.29 41.81, 1.23 1.11" stroke="#000000" stroke-width="1" fill="none"></path></g><g transform="translate(448.6619127061638 300.5289180695073) rotate(0 47.5 17.5)"><text x="47.5" y="25" font-family="Virgil, Segoe UI Emoji" font-size="28px" fill="#000000" text-anchor="middle" style="white-space: pre;" direction="ltr">Service</text></g></svg>